<svg xmlns="http://www.w3.org/2000/svg" version="1.1" xmlns:xlink="http://www.w3.org/1999/xlink" xmlns:svgjs="http://svgjs.dev/svgjs" width="1500" height="549" viewBox="0 0 1500 549"><g transform="matrix(1,0,0,1,-0.9090909090909918,-0.4923540116201366)"><svg viewBox="0 0 396 145" data-background-color="#ffffff" preserveAspectRatio="xMidYMid meet" height="549" width="1500" xmlns="http://www.w3.org/2000/svg" xmlns:xlink="http://www.w3.org/1999/xlink"><g id="tight-bounds" transform="matrix(1,0,0,1,0.2400000000000091,0.1300388555280847)"><svg viewBox="0 0 395.52 144.73992228894383" height="144.73992228894383" width="395.52"><g><svg viewBox="0 0 395.52 144.73992228894383" height="144.73992228894383" width="395.52"><g><svg viewBox="0 0 395.52 144.73992228894383" height="144.73992228894383" width="395.52"><g id="textblocktransform"><svg viewBox="0 0 395.52 144.73992228894383" height="144.73992228894383" width="395.52" id="textblock"><g><svg viewBox="0 0 395.52 144.73992228894383" height="144.73992228894383" width="395.52"><g transform="matrix(1,0,0,1,0,0)"><svg width="395.52" viewBox="1.15 -35.8 141.53 51.8" height="144.73992228894383" data-palette-color="#30017e"><path d="M8.85-22.5L8.85-22.5 8.9-16.25 8.7-7.6Q8.75-7.4 8.85-7.4 8.95-7.4 9-7.5L9-7.5Q10-8.9 11.48-8.9 12.95-8.9 12.95-8.3L12.95-8.3Q12.95-6.4 13.68-5.38 14.4-4.35 15.73-4.35 17.05-4.35 18.28-6.15 19.5-7.95 19.5-10.95L19.5-10.95Q19.5-11.95 19.1-13.35L19.1-13.35Q18.3-16.15 16.1-17.1L16.1-17.1Q14.5-17.75 10.9-17.75L10.9-17.75Q10.5-17.75 10.5-18.3L10.5-18.3Q10.5-21.1 11.5-21.2L11.5-21.2Q12.85-21.2 14.35-21.9L14.35-21.9Q17.35-23.3 17.35-27.65L17.35-27.65Q17.35-32.35 11.95-32.35L11.95-32.35 10.4-32.25Q9.5-32.05 9.4-31.5L9.4-31.5 9.4-31.35Q8.85-29.35 8.85-22.5ZM1.5 0.7L1.5 0.7 1.6 0.15Q2.1-0.75 2.45-7.18 2.8-13.6 2.8-19.18 2.8-24.75 2.58-28.13 2.35-31.5 1.35-33L1.35-33Q1.15-33.25 1.15-33.6 1.15-33.95 1.75-34.2L1.75-34.2Q5.85-35.8 12.9-35.8L12.9-35.8Q14.65-35.8 16.7-35.33 18.75-34.85 20.08-34.15 21.4-33.45 22.48-32 23.55-30.55 23.7-28.55L23.7-28.55Q23.7-21.3 17.7-20.2L17.7-20.2Q17.4-20.1 17.4-19.98 17.4-19.85 17.65-19.7L17.65-19.7Q20.75-19.2 22.85-17.2L22.85-17.2Q23.9-16.25 24.75-14.25 25.6-12.25 25.6-9.65L25.6-9.65Q25.6-6.3 23.65-3.3L23.65-3.3Q22.05-0.85 19 0.2L19 0.2Q17.3 0.8 15.2 0.8L15.2 0.8Q9.95 0.8 8.55-2.55L8.55-2.55Q8.5-2.7 8.4-2.7L8.4-2.7 8.2-2.5Q7.15 1 2.2 1.15L2.2 1.15Q1.5 1.15 1.5 0.7ZM34.3-28.6L34.3-28.6 34-10.25Q34-1.65 34.55 0.05L34.55 0.05Q34.7 0.35 34.7 0.65L34.7 0.65Q34.7 1.25 33.25 1.25 31.8 1.25 30.02 0.53 28.25-0.2 28.25-1.35L28.25-1.35Q29.25-8.35 29.25-20.05L29.25-20.05 29.05-27.7Q28.95-29.1 28.47-30.1 28-31.1 27.55-31.4L27.55-31.4 27.15-31.65Q26.8-31.85 26.8-32.1L26.8-32.1Q26.8-32.8 28.97-33.83 31.15-34.85 33.2-34.85L33.2-34.85Q34-34.85 34.1-34.3L34.1-34.3Q34.3-33 34.3-28.6ZM42.59-18.85L42.59-18.85Q41.3-18.8 40.72-18.78 40.15-18.75 40.15-19.05 40.15-19.35 40.45-19.65L40.45-19.65Q43.65-22.6 51.25-22.6L51.25-22.6Q53.84-22.6 55.34-22.15L55.34-22.15 55.84-22Q56.45-21.75 56.45-21.45L56.45-21.45Q56.45-21.2 56.09-21.05L56.09-21.05Q54.75-20.65 53.5-19.78 52.25-18.9 52.25-18.55L52.25-18.55 52.55-18.2Q54.14-17.3 55.02-15.35 55.9-13.4 56-11.9L56-11.9 56.09-10.35Q56.09-5.4 53.34-2.2 50.59 1 45.84 1L45.84 1Q43.45 1 41.7 0.15 39.95-0.7 39.12-1.78 38.3-2.85 37.8-4.2L37.8-4.2Q37.2-6.05 37.2-8.03 37.2-10 37.87-12 38.55-14 39.42-14.95 40.3-15.9 41.4-16.5L41.4-16.5Q42.8-17.25 43.65-17.25 44.5-17.25 44.5-16.9L44.5-16.9 44.2-16.4Q43.09-15.1 42.62-13 42.15-10.9 42.15-9.28 42.15-7.65 42.55-6.05 42.95-4.45 43.45-3.68 43.95-2.9 44.59-2.5L44.59-2.5Q45.55-1.9 46.59-1.9 47.65-1.9 48.65-2.73 49.65-3.55 50.09-4.9L50.09-4.9Q51-7.4 51-10.05L51-10.05Q51-14.25 48.87-16.55 46.75-18.85 42.59-18.85ZM61.99-20.18Q63.09-21.3 64.89-22.08 66.69-22.85 68.34-22.85 69.99-22.85 71.69-22.1L71.69-22.1Q71.89-22.1 71.99-22.2L71.99-22.2Q73.29-23.5 75.79-23.5L75.79-23.5Q76.39-23.5 76.39-22.95L76.39-22.95Q76.39-22.9 76.29-22.5 76.19-22.1 76.04-21.33 75.89-20.55 75.79-19.45L75.79-19.45Q75.44-16.6 75.42-13.15 75.39-9.7 75.39-6.25L75.39-6.25 75.54 4.25Q75.54 9.3 72.94 12.65L72.94 12.65Q71.89 14 69.77 15 67.64 16 64.79 16L64.79 16Q64.14 15.6 64.14 15.2 64.14 14.8 64.69 14.55L64.69 14.55Q67.84 13.1 69.19 7.68 70.54 2.25 70.54-8.8L70.54-8.8 70.44-15.8 70.29-19.2Q70.29-19.65 68.89-19.85L68.89-19.85Q67.09-19.85 65.87-18.68 64.64-17.5 64.19-15.6L64.19-15.6Q63.39-12.55 63.39-10.33 63.39-8.1 64.12-6.4 64.84-4.7 66.64-4.7L66.64-4.7Q67.14-4.7 67.57-4.9 67.99-5.1 68.14-5.1L68.14-5.1Q68.64-5.1 68.64-4.1 68.64-3.1 68.49-2.48 68.34-1.85 67.89-1.1L67.89-1.1Q66.89 0.55 63.99 0.55L63.99 0.55Q61.09 0.55 59.84-1.55L59.84-1.55Q58.54-3.7 58.34-5.4L58.34-5.4Q58.04-7.95 58.04-8.75 58.04-9.55 58.07-10.03 58.09-10.5 58.32-11.93 58.54-13.35 58.92-14.63 59.29-15.9 60.09-17.48 60.89-19.05 61.99-20.18ZM81.94-20.18Q83.04-21.3 84.84-22.08 86.64-22.85 88.29-22.85 89.94-22.85 91.64-22.1L91.64-22.1Q91.84-22.1 91.94-22.2L91.94-22.2Q93.24-23.5 95.74-23.5L95.74-23.5Q96.34-23.5 96.34-22.95L96.34-22.95Q96.34-22.9 96.24-22.5 96.14-22.1 95.99-21.33 95.84-20.55 95.74-19.45L95.74-19.45Q95.39-16.6 95.37-13.15 95.34-9.7 95.34-6.25L95.34-6.25 95.49 4.25Q95.49 9.3 92.89 12.65L92.89 12.65Q91.84 14 89.72 15 87.59 16 84.74 16L84.74 16Q84.09 15.6 84.09 15.2 84.09 14.8 84.64 14.55L84.64 14.55Q87.79 13.1 89.14 7.68 90.49 2.25 90.49-8.8L90.49-8.8 90.39-15.8 90.24-19.2Q90.24-19.65 88.84-19.85L88.84-19.85Q87.04-19.85 85.82-18.68 84.59-17.5 84.14-15.6L84.14-15.6Q83.34-12.55 83.34-10.33 83.34-8.1 84.07-6.4 84.79-4.7 86.59-4.7L86.59-4.7Q87.09-4.7 87.52-4.9 87.94-5.1 88.09-5.1L88.09-5.1Q88.59-5.1 88.59-4.1 88.59-3.1 88.44-2.48 88.29-1.85 87.84-1.1L87.84-1.1Q86.84 0.55 83.94 0.55L83.94 0.55Q81.04 0.55 79.79-1.55L79.79-1.55Q78.49-3.7 78.29-5.4L78.29-5.4Q77.99-7.95 77.99-8.75 77.99-9.55 78.02-10.03 78.04-10.5 78.27-11.93 78.49-13.35 78.87-14.63 79.24-15.9 80.04-17.48 80.84-19.05 81.94-20.18ZM103.74-26.75L103.74-26.75 102.54-26.8Q101.19-26.8 100.79-26.15L100.79-26.15Q100.69-26 100.54-26L100.54-26Q99.89-26 99.89-28.23 99.89-30.45 100.56-31.05 101.24-31.65 102.91-31.65 104.59-31.65 105.19-31.08 105.79-30.5 105.79-29.15 105.79-27.8 105.34-27.28 104.89-26.75 103.74-26.75ZM99.74-1.5L99.74-1.5 100.29-13.15Q100.29-17.3 99.34-18.8L99.34-18.8Q99.04-19.3 98.64-19.55L98.64-19.55Q98.34-19.65 98.34-19.95L98.34-19.95Q98.34-20.85 100.89-21.7 103.44-22.55 104.61-22.55 105.79-22.55 105.84-21.95L105.84-21.95Q105.84-20.95 105.56-16.28 105.29-11.6 105.29-6.45 105.29-1.3 105.89-0.05L105.89-0.05Q106.04 0.2 106.04 0.45L106.04 0.45Q106.04 1.1 104.14 1.1 102.24 1.1 100.24 0.1L100.24 0.1Q99.74-0.15 99.74-1.5ZM113.84-12.7L113.84-12.7 113.89-11.45Q113.89-11.15 114.29-11.15L114.29-11.15Q115.89-11.3 117.09-11.98 118.29-12.65 118.89-13.5L118.89-13.5Q120.09-15.35 120.19-16.7L120.19-16.7 120.24-17.3Q120.24-20 118.09-20L118.09-20Q116.49-20 115.49-18.6L115.49-18.6Q113.84-16.4 113.84-12.7ZM124.74-6.05L124.74-6.05Q124.74-4.15 123.96-2.73 123.19-1.3 122.21-0.63 121.24 0.05 119.94 0.45L119.94 0.45Q118.29 0.95 116.79 0.95L116.79 0.95Q112.59 0.95 110.59-2.2 108.59-5.35 108.59-10.23 108.59-15.1 111.06-18.9 113.54-22.7 118.49-22.7L118.49-22.7Q122.99-22.7 124.59-19.55L124.59-19.55Q125.24-18.35 125.24-17.28 125.24-16.2 125.14-15.58 125.04-14.95 124.44-13.7 123.84-12.45 122.84-11.45 121.84-10.45 119.69-9.55 117.54-8.65 114.64-8.35L114.64-8.35Q114.24-8.35 114.24-8L114.24-8Q114.24-7.55 114.56-6.68 114.89-5.8 115.29-5.2L115.29-5.2Q116.39-3.8 118.54-3.8L118.54-3.8Q120.69-3.8 122.19-5.2L122.19-5.2Q122.99-5.95 123.49-7.05L123.49-7.05Q123.69-7.45 124.01-7.45 124.34-7.45 124.54-6.9 124.74-6.35 124.74-6.05ZM142.68-6.85L142.68-6.85Q142.68-4.7 141.86-3.1 141.03-1.5 139.98-0.75 138.93 0 137.48 0.45L137.48 0.45Q135.58 1.05 134.03 1.05L134.03 1.05Q130.78 1.05 128.63-0.23 126.48-1.5 126.48-4.3L126.48-4.3Q126.48-5.95 127.38-7L127.38-7Q128.78-8.55 130.73-8.55L130.73-8.55Q131.33-8.55 131.33-8L131.33-8Q131.33-7.95 131.11-7.23 130.88-6.5 130.88-5.4 130.88-4.3 131.76-3.45 132.63-2.6 133.88-2.6 135.13-2.6 135.88-3.03 136.63-3.45 136.93-4.1L136.93-4.1Q137.38-5 137.38-5.8L137.38-5.8Q137.38-7.25 135.93-8.3 134.48-9.35 132.73-9.95 130.98-10.55 129.53-11.95 128.08-13.35 128.08-15.45L128.08-15.45Q128.08-19.05 130.36-20.85 132.63-22.65 136.53-22.65L136.53-22.65Q138.23-22.65 140.11-22.18 141.98-21.7 141.98-20.58 141.98-19.45 141.61-18.5 141.23-17.55 140.68-17.55L140.68-17.55Q140.38-17.55 140.28-17.78 140.18-18 139.93-18.3 139.68-18.6 138.73-19.07 137.78-19.55 137.11-19.55 136.43-19.55 136.21-19.53 135.98-19.5 135.43-19.38 134.88-19.25 134.43-19L134.43-19Q133.28-18.35 133.28-17.1L133.28-17.1Q133.28-16.3 133.63-15.93 133.98-15.55 134.18-15.35 134.38-15.15 134.88-14.88 135.38-14.6 135.58-14.5 135.78-14.4 136.48-14.08 137.18-13.75 137.38-13.65L137.38-13.65Q142.68-11.15 142.68-6.85Z" opacity="1" transform="matrix(1,0,0,1,0,0)" fill="#30017e" class="wordmark-text-0" data-fill-palette-color="primary" id="text-0"></path></svg></g></svg></g></svg></g></svg></g><g></g></svg></g><defs></defs></svg><rect width="395.52" height="144.73992228894383" fill="none" stroke="none" visibility="hidden"></rect></g></svg></g></svg>