<svg xmlns="http://www.w3.org/2000/svg" xmlns:xlink="http://www.w3.org/1999/xlink" width="300" zoomAndPan="magnify" viewBox="0 0 224.87999 225" height="300" preserveAspectRatio="xMidYMid meet" version="1.0"><defs><g/></defs><g fill="#160404" fill-opacity="1"><g transform="translate(62.439332, 125.618004)"><g><path d="M 15.796875 -16.796875 C 15.859375 -16.328125 15.890625 -15.875 15.890625 -15.4375 C 15.890625 -14.175781 15.640625 -12.976562 15.140625 -11.84375 C 14.847656 -11.289062 14.546875 -10.804688 14.234375 -10.390625 C 14.304688 -10.492188 14.34375 -10.625 14.34375 -10.78125 C 14.34375 -10.957031 14.328125 -11.09375 14.296875 -11.1875 C 14.273438 -11.269531 14.265625 -11.378906 14.265625 -11.515625 C 14.265625 -11.628906 14.289062 -11.6875 14.34375 -11.6875 L 14.296875 -11.6875 C 14.296875 -11.84375 14.285156 -11.953125 14.265625 -12.015625 C 14.265625 -12.148438 14.3125 -12.269531 14.40625 -12.375 C 14.269531 -12.394531 14.222656 -12.453125 14.265625 -12.546875 C 14.265625 -12.628906 14.253906 -12.679688 14.234375 -12.703125 L 14.234375 -10.390625 C 13.703125 -9.660156 13.039062 -9.070312 12.25 -8.625 L 12.21875 -8.625 C 11.15625 -8.050781 9.96875 -7.585938 8.65625 -7.234375 C 8.28125 -7.097656 7.765625 -6.976562 7.109375 -6.875 L 6.796875 -6.796875 L 6.53125 -6.765625 L 6.5 -6.765625 C 6.5 -6.816406 6.476562 -6.84375 6.4375 -6.84375 C 6.320312 -6.84375 6.265625 -6.804688 6.265625 -6.734375 C 6.265625 -6.710938 6.28125 -6.703125 6.3125 -6.703125 L 5.28125 -6.578125 L 5.078125 -0.65625 C 5.078125 -0.21875 4.851562 0 4.40625 0 L 0.328125 0 C 0.128906 0 -0.0234375 -0.0625 -0.140625 -0.1875 C -0.265625 -0.320312 -0.328125 -0.492188 -0.328125 -0.703125 L -0.203125 -3.1875 L -0.125 -3.125 C -0.0625 -3.144531 0.046875 -3.207031 0.203125 -3.3125 L 0.09375 -3.390625 L -0.0625 -3.390625 L -0.203125 -3.28125 L -0.125 -5.046875 L -0.03125 -5.046875 C -0.03125 -5.085938 -0.0507812 -5.109375 -0.09375 -5.109375 L -0.125 -5.140625 L 0.59375 -20.84375 C 0.632812 -21.175781 0.8125 -21.375 1.125 -21.4375 C 5.21875 -22.28125 7.519531 -22.734375 8.03125 -22.796875 C 8.125 -22.796875 8.242188 -22.800781 8.390625 -22.8125 C 8.546875 -22.820312 8.722656 -22.851562 8.921875 -22.90625 L 9.828125 -22.9375 L 9.859375 -22.9375 C 11.578125 -22.84375 12.945312 -22.242188 13.96875 -21.140625 C 14.988281 -20.035156 15.597656 -18.585938 15.796875 -16.796875 Z M 1.765625 -19.375 L 1.765625 -19.484375 L 1.6875 -19.484375 L 1.6875 -19.375 Z M 5.546875 -11.875 C 6.253906 -11.96875 6.785156 -12.054688 7.140625 -12.140625 C 8.222656 -12.492188 9.039062 -12.90625 9.59375 -13.375 C 10.007812 -13.726562 10.285156 -14.191406 10.421875 -14.765625 C 10.441406 -14.878906 10.453125 -15.046875 10.453125 -15.265625 C 10.453125 -15.910156 10.304688 -16.484375 10.015625 -16.984375 C 9.734375 -17.492188 9.328125 -17.75 8.796875 -17.75 C 8.660156 -17.75 8.5625 -17.738281 8.5 -17.71875 L 5.875 -17.1875 Z M 12.34375 -17.5625 L 12.34375 -17.484375 L 12.484375 -17.484375 L 12.484375 -17.5625 Z M 10.546875 -17.296875 C 10.523438 -17.265625 10.515625 -17.238281 10.515625 -17.21875 C 10.515625 -17.195312 10.523438 -17.1875 10.546875 -17.1875 C 10.578125 -17.144531 10.613281 -17.125 10.65625 -17.125 C 10.695312 -17.125 10.71875 -17.144531 10.71875 -17.1875 L 10.78125 -17.21875 Z M 1.359375 -16.953125 L 1.359375 -17.125 L 1.296875 -17.125 L 1.296875 -16.953125 Z M 11.546875 -16.953125 L 11.546875 -17.0625 L 11.453125 -17.0625 L 11.453125 -16.953125 Z M 11.75 -15.859375 C 11.75 -15.972656 11.660156 -16.070312 11.484375 -16.15625 L 11.484375 -15.765625 C 11.566406 -15.765625 11.65625 -15.796875 11.75 -15.859375 Z M 11.8125 -15.203125 C 11.90625 -15.285156 11.953125 -15.335938 11.953125 -15.359375 L 11.875 -15.53125 L 11.75 -15.4375 C 11.75 -15.4375 11.742188 -15.429688 11.734375 -15.421875 C 11.722656 -15.410156 11.71875 -15.40625 11.71875 -15.40625 L 11.6875 -15.40625 C 11.59375 -15.351562 11.523438 -15.304688 11.484375 -15.265625 Z M 12.34375 -14.9375 C 12.28125 -15.09375 12.238281 -15.171875 12.21875 -15.171875 L 12.140625 -15.203125 L 12.078125 -15.171875 C 12.078125 -15.078125 12.125 -15.03125 12.21875 -15.03125 Z M 11.15625 -14.4375 C 11.15625 -14.5 11.144531 -14.539062 11.125 -14.5625 L 11.046875 -14.609375 L 10.921875 -14.609375 L 10.921875 -14.4375 Z M 11.078125 -14.03125 C 11.171875 -14.125 11.21875 -14.203125 11.21875 -14.265625 C 11.125 -14.265625 11.066406 -14.273438 11.046875 -14.296875 L 10.921875 -14.203125 C 10.847656 -14.140625 10.828125 -14.097656 10.859375 -14.078125 Z M 11.484375 -14.109375 C 11.660156 -14.109375 11.75 -14.160156 11.75 -14.265625 L 11.484375 -14.265625 Z M 14.34375 -13.671875 C 14.363281 -13.691406 14.375 -13.722656 14.375 -13.765625 C 14.375 -13.859375 14.328125 -13.960938 14.234375 -14.078125 C 14.191406 -14.023438 14.191406 -13.976562 14.234375 -13.9375 C 14.234375 -13.875 14.222656 -13.832031 14.203125 -13.8125 L 13.96875 -13.8125 C 14.007812 -13.738281 13.988281 -13.703125 13.90625 -13.703125 C 13.90625 -13.703125 13.972656 -13.679688 14.109375 -13.640625 L 14.265625 -13.609375 C 14.265625 -13.609375 14.269531 -13.617188 14.28125 -13.640625 C 14.289062 -13.660156 14.3125 -13.671875 14.34375 -13.671875 Z M 11.28125 -13.8125 C 11.457031 -13.738281 11.613281 -13.703125 11.75 -13.703125 C 11.613281 -13.816406 11.546875 -13.875 11.546875 -13.875 C 11.441406 -13.875 11.375 -13.863281 11.34375 -13.84375 Z M 11.484375 -13.671875 L 11.34375 -13.609375 L 11.546875 -13.46875 L 11.609375 -13.546875 Z M 14.203125 -13.546875 L 14.203125 -12.78125 L 14.296875 -12.78125 L 14.296875 -13.546875 Z M 10.859375 -12.609375 C 10.742188 -12.742188 10.617188 -12.832031 10.484375 -12.875 Z M 11.125 -11.34375 L 11.125 -11.28125 L 11.453125 -11.28125 L 11.453125 -11.34375 Z M 10.546875 -10.921875 C 10.546875 -10.960938 10.519531 -11 10.46875 -11.03125 C 10.414062 -11.0625 10.367188 -11.078125 10.328125 -11.078125 L 10.25 -10.890625 Z M 9.71875 -10.921875 L 9.921875 -10.921875 L 9.921875 -10.984375 L 9.71875 -10.984375 Z M 2.390625 -10.421875 C 2.347656 -10.484375 2.289062 -10.539062 2.21875 -10.59375 C 2.15625 -10.632812 2.125 -10.675781 2.125 -10.71875 C 2.0625 -10.65625 1.992188 -10.625 1.921875 -10.625 C 1.921875 -10.601562 1.898438 -10.59375 1.859375 -10.59375 C 2.035156 -10.5625 2.15625 -10.503906 2.21875 -10.421875 Z M 9.796875 -10.6875 C 9.742188 -10.644531 9.71875 -10.625 9.71875 -10.625 L 9.6875 -10.625 C 9.644531 -10.601562 9.625 -10.566406 9.625 -10.515625 C 9.625 -10.453125 9.632812 -10.421875 9.65625 -10.421875 L 9.6875 -10.421875 C 9.726562 -10.378906 9.785156 -10.359375 9.859375 -10.359375 C 9.960938 -10.359375 10.03125 -10.390625 10.0625 -10.453125 L 10.0625 -10.625 Z M 1.6875 -10.421875 L 1.765625 -10.515625 C 1.785156 -10.535156 1.796875 -10.570312 1.796875 -10.625 L 1.625 -10.625 L 1.625 -10.546875 Z M 6.578125 -10.546875 L 6.46875 -10.546875 L 6.46875 -10.390625 L 6.578125 -10.390625 Z M 1.859375 -10.015625 C 1.941406 -10.015625 2.019531 -10.03125 2.09375 -10.0625 C 2.226562 -10.101562 2.304688 -10.125 2.328125 -10.125 L 2.15625 -10.25 C 2.070312 -10.300781 2.015625 -10.328125 1.984375 -10.328125 C 1.941406 -10.328125 1.878906 -10.300781 1.796875 -10.25 L 1.625 -10.125 C 1.664062 -10.101562 1.695312 -10.085938 1.71875 -10.078125 C 1.75 -10.066406 1.75 -10.0625 1.71875 -10.0625 Z M 10.515625 -10.28125 L 10.453125 -10.125 L 10.59375 -10.09375 L 10.65625 -10.21875 Z M 8.359375 -9.796875 C 8.316406 -9.796875 8.273438 -9.773438 8.234375 -9.734375 C 8.191406 -9.703125 8.171875 -9.664062 8.171875 -9.625 L 8.390625 -9.59375 L 8.390625 -9.421875 L 8.59375 -9.421875 L 8.6875 -9.453125 C 8.601562 -9.546875 8.503906 -9.59375 8.390625 -9.59375 L 8.421875 -9.6875 C 8.421875 -9.707031 8.398438 -9.742188 8.359375 -9.796875 Z M 9.59375 -9.59375 C 9.59375 -9.613281 9.582031 -9.625 9.5625 -9.625 L 9.5625 -9.6875 C 9.5625 -9.6875 9.554688 -9.691406 9.546875 -9.703125 C 9.535156 -9.710938 9.53125 -9.71875 9.53125 -9.71875 L 9.328125 -9.59375 Z M 1.65625 -9.6875 L 1.59375 -9.6875 L 1.6875 -9.421875 L 1.765625 -9.421875 Z M 9 -9.359375 C 9.039062 -9.398438 9.0625 -9.441406 9.0625 -9.484375 C 9.0625 -9.535156 9.039062 -9.582031 9 -9.625 L 8.765625 -9.625 C 8.828125 -9.46875 8.90625 -9.378906 9 -9.359375 Z M 1.6875 -9.359375 L 1.59375 -9.265625 L 1.65625 -9.21875 L 1.765625 -9.359375 Z M 6.875 -9.359375 L 6.875 -9.125 L 7.140625 -9.15625 Z M 2.515625 -9.328125 L 2.515625 -9.15625 L 2.71875 -9.15625 L 2.71875 -9.328125 Z M 8.6875 -9.1875 C 8.582031 -9.125 8.484375 -9.035156 8.390625 -8.921875 L 8.65625 -8.921875 L 9.15625 -8.828125 L 9.15625 -8.890625 L 9.125 -8.921875 L 9.09375 -9 L 9.0625 -9 L 9.03125 -8.953125 L 8.890625 -8.921875 L 8.765625 -8.921875 Z M 9.390625 -8.65625 C 9.390625 -8.75 9.332031 -8.828125 9.21875 -8.890625 C 9.15625 -8.804688 9.144531 -8.71875 9.1875 -8.625 L 9.328125 -8.625 Z M 8.5625 -8.296875 C 8.625 -8.296875 8.679688 -8.273438 8.734375 -8.234375 C 8.835938 -8.390625 8.890625 -8.476562 8.890625 -8.5 L 8.859375 -8.625 C 8.859375 -8.625 8.828125 -8.660156 8.765625 -8.734375 L 8.6875 -8.6875 L 8.65625 -8.6875 C 8.65625 -8.6875 8.648438 -8.679688 8.640625 -8.671875 C 8.628906 -8.660156 8.625 -8.65625 8.625 -8.65625 L 8.5625 -8.625 Z M 1.1875 -8.53125 L 1.359375 -8.53125 L 1.328125 -8.59375 C 1.328125 -8.59375 1.296875 -8.625 1.234375 -8.6875 L 1.234375 -8.59375 Z M 9.59375 -8.390625 L 9.59375 -8.296875 L 9.859375 -8.359375 L 9.859375 -8.46875 Z M 6.4375 -8.265625 C 6.320312 -8.148438 6.265625 -8.070312 6.265625 -8.03125 L 6.4375 -7.9375 L 6.640625 -8.09375 Z M 9 -8.125 C 9 -8.0625 9.050781 -8.03125 9.15625 -8.03125 L 9.21875 -8.03125 C 9.25 -8.050781 9.265625 -8.097656 9.265625 -8.171875 L 9.265625 -8.265625 C 9.085938 -8.265625 9 -8.21875 9 -8.125 Z M 2.21875 -8.234375 L 2.03125 -8.171875 L 2.03125 -8.09375 L 2.25 -8.171875 Z M 9.390625 -7.796875 C 9.429688 -7.867188 9.429688 -7.925781 9.390625 -7.96875 C 9.273438 -7.925781 9.21875 -7.867188 9.21875 -7.796875 Z M 9.09375 -7.734375 C 9.09375 -7.796875 9.0625 -7.835938 9 -7.859375 C 8.882812 -7.859375 8.828125 -7.816406 8.828125 -7.734375 Z M 1.453125 -7.671875 L 1.453125 -7.46875 L 1.53125 -7.46875 L 1.53125 -7.671875 Z M 6.171875 -7.296875 L 6.171875 -7.171875 L 6.375 -7.171875 L 6.375 -7.296875 Z M 1.5 -7.265625 C 1.46875 -7.179688 1.441406 -7.101562 1.421875 -7.03125 C 1.398438 -6.96875 1.378906 -6.90625 1.359375 -6.84375 C 1.335938 -6.769531 1.316406 -6.695312 1.296875 -6.625 C 1.273438 -6.5625 1.265625 -6.5 1.265625 -6.4375 C 1.265625 -6.394531 1.273438 -6.363281 1.296875 -6.34375 C 1.335938 -6.289062 1.347656 -6.253906 1.328125 -6.234375 C 1.210938 -6.210938 1.179688 -6.148438 1.234375 -6.046875 C 1.273438 -5.910156 1.273438 -5.820312 1.234375 -5.78125 C 1.234375 -5.78125 1.207031 -5.753906 1.15625 -5.703125 C 1.15625 -5.703125 1.148438 -5.695312 1.140625 -5.6875 C 1.128906 -5.675781 1.125 -5.671875 1.125 -5.671875 C 1.082031 -5.648438 1.0625 -5.617188 1.0625 -5.578125 C 1.0625 -5.535156 1.070312 -5.5 1.09375 -5.46875 C 1.09375 -5.46875 1.097656 -5.453125 1.109375 -5.421875 C 1.117188 -5.390625 1.101562 -5.363281 1.0625 -5.34375 L 1 -5.3125 L 0.96875 -5.3125 C 1.03125 -5.195312 1.050781 -5.109375 1.03125 -5.046875 C 0.9375 -4.796875 0.914062 -4.628906 0.96875 -4.546875 C 0.988281 -4.503906 0.992188 -4.460938 0.984375 -4.421875 C 0.972656 -4.390625 0.953125 -4.375 0.921875 -4.375 C 0.878906 -4.269531 0.859375 -4.140625 0.859375 -3.984375 C 0.859375 -3.828125 0.867188 -3.71875 0.890625 -3.65625 C 0.828125 -3.632812 0.785156 -3.585938 0.765625 -3.515625 L 0.625 -3.359375 L 0.625 -3.25 C 0.625 -2.9375 0.613281 -2.726562 0.59375 -2.625 C 0.550781 -2.46875 0.523438 -2.335938 0.515625 -2.234375 C 0.503906 -2.140625 0.5 -2.054688 0.5 -1.984375 C 0.5 -1.921875 0.488281 -1.867188 0.46875 -1.828125 L 0.390625 -1.6875 C 0.390625 -1.582031 0.40625 -1.414062 0.4375 -1.1875 C 0.476562 -0.96875 0.53125 -0.828125 0.59375 -0.765625 C 0.726562 -0.722656 0.882812 -0.703125 1.0625 -0.703125 L 1.5 -0.625 Z M 0.296875 -6.109375 L 0.296875 -6.203125 L 0.09375 -6.203125 L 0.09375 -6.109375 Z M 0.296875 -5.546875 C 0.253906 -5.585938 0.191406 -5.609375 0.109375 -5.609375 C 0.0351562 -5.609375 0 -5.585938 0 -5.546875 L 0.09375 -5.4375 C 0.164062 -5.4375 0.234375 -5.472656 0.296875 -5.546875 Z M 0.265625 -5.140625 C 0.304688 -5.140625 0.328125 -5.160156 0.328125 -5.203125 C 0.191406 -5.253906 0.0820312 -5.253906 0 -5.203125 L 0.171875 -5.109375 Z M 0.265625 -4.875 C 0.148438 -4.945312 0.09375 -5.015625 0.09375 -5.078125 L 0.0625 -4.984375 C 0.0625 -4.929688 0.0507812 -4.894531 0.03125 -4.875 Z M 3.21875 -4.578125 C 3.21875 -4.492188 3.238281 -4.40625 3.28125 -4.3125 L 3.28125 -4.671875 Z M -0.0625 -4.21875 L -0.0625 -4.109375 L 0.09375 -4.109375 L 0.09375 -4.21875 Z M 3.21875 -3.890625 L 3.1875 -3.78125 C 3.1875 -3.738281 3.175781 -3.71875 3.15625 -3.71875 C 3.21875 -3.601562 3.226562 -3.546875 3.1875 -3.546875 C 3.164062 -3.566406 3.148438 -3.570312 3.140625 -3.5625 C 3.128906 -3.550781 3.125 -3.535156 3.125 -3.515625 C 3.125 -3.429688 3.132812 -3.359375 3.15625 -3.296875 C 3.175781 -3.242188 3.207031 -3.175781 3.25 -3.09375 L 3.28125 -4.21875 Z M -0.09375 -2.828125 L -0.203125 -2.78125 L -0.203125 -2.75 L -0.0625 -2.78125 Z M 4.453125 -0.171875 L 4.375 -0.171875 L 4.40625 -0.0625 L 4.484375 -0.0625 Z M 4.453125 -0.171875 "/></g></g></g><g fill="#160404" fill-opacity="1"><g transform="translate(80.091852, 125.618004)"><g><path d="M 5.96875 -23.265625 C 6.164062 -23.265625 6.328125 -23.191406 6.453125 -23.046875 C 6.578125 -22.898438 6.640625 -22.726562 6.640625 -22.53125 C 6.304688 -18.613281 6.0625 -14.972656 5.90625 -11.609375 C 5.863281 -9.929688 5.84375 -8.695312 5.84375 -7.90625 L 5.734375 -7.90625 C 5.628906 -7.90625 5.554688 -7.890625 5.515625 -7.859375 L 5.46875 -7.640625 L 5.546875 -7.640625 C 5.472656 -7.523438 5.347656 -7.4375 5.171875 -7.375 C 5.367188 -7.28125 5.59375 -7.234375 5.84375 -7.234375 L 5.84375 -6.265625 L 5.671875 -6.265625 L 5.546875 -6.203125 L 5.4375 -6.171875 C 5.4375 -6.171875 5.414062 -6.148438 5.375 -6.109375 L 5.375 -5.96875 C 5.351562 -5.925781 5.34375 -5.875 5.34375 -5.8125 C 5.34375 -5.675781 5.351562 -5.5625 5.375 -5.46875 L 5.515625 -5.578125 L 5.578125 -5.609375 L 5.734375 -5.703125 C 5.765625 -5.722656 5.78125 -5.78125 5.78125 -5.875 L 5.8125 -5.90625 L 5.84375 -5.90625 C 5.820312 -5.6875 5.8125 -5.210938 5.8125 -4.484375 C 5.757812 -4.523438 5.703125 -4.523438 5.640625 -4.484375 C 5.640625 -4.390625 5.648438 -4.34375 5.671875 -4.34375 L 5.703125 -4.3125 L 5.703125 -4.28125 L 5.78125 -4.28125 L 5.78125 -4.3125 L 5.8125 -4.3125 L 5.8125 -3.09375 C 5.8125 -3.175781 5.765625 -3.25 5.671875 -3.3125 L 5.40625 -3.3125 C 5.40625 -3.25 5.414062 -3.21875 5.4375 -3.21875 L 5.4375 -3.125 L 5.46875 -3.09375 L 5.46875 -3.046875 C 5.5625 -3.023438 5.675781 -3.039062 5.8125 -3.09375 L 5.8125 -0.765625 C 5.8125 -0.316406 5.585938 -0.09375 5.140625 -0.09375 L 0.359375 0 C 0.160156 0 0 -0.0625 -0.125 -0.1875 C -0.257812 -0.320312 -0.328125 -0.492188 -0.328125 -0.703125 C -0.242188 -5.472656 -0.132812 -9.054688 0 -11.453125 C 0.132812 -14.328125 0.253906 -16.460938 0.359375 -17.859375 C 0.378906 -17.835938 0.414062 -17.828125 0.46875 -17.828125 L 0.5 -17.984375 C 0.476562 -18.003906 0.441406 -18.015625 0.390625 -18.015625 L 0.703125 -22.5 C 0.722656 -22.914062 0.953125 -23.125 1.390625 -23.125 Z M 2.59375 -22.265625 C 2.632812 -22.335938 2.6875 -22.375 2.75 -22.375 C 2.925781 -22.375 3.050781 -22.296875 3.125 -22.140625 C 3.1875 -21.984375 3.25 -21.894531 3.3125 -21.875 C 3.363281 -21.914062 3.390625 -21.992188 3.390625 -22.109375 C 3.335938 -22.171875 3.378906 -22.222656 3.515625 -22.265625 L 3.921875 -22.265625 C 3.921875 -22.359375 3.875 -22.414062 3.78125 -22.4375 C 3.644531 -22.414062 3.566406 -22.414062 3.546875 -22.4375 C 3.523438 -22.457031 3.484375 -22.46875 3.421875 -22.46875 L 3.25 -22.40625 C 3.1875 -22.332031 3.144531 -22.296875 3.125 -22.296875 C 3.050781 -22.296875 2.984375 -22.332031 2.921875 -22.40625 L 2.75 -22.46875 L 2.296875 -22.46875 C 2.316406 -22.40625 2.300781 -22.347656 2.25 -22.296875 L 2.0625 -22.296875 C 1.988281 -22.410156 1.953125 -22.445312 1.953125 -22.40625 C 1.953125 -22.425781 1.929688 -22.414062 1.890625 -22.375 L 1.828125 -22.234375 L 1.6875 -22.234375 C 1.6875 -22.234375 1.65625 -22.265625 1.59375 -22.328125 C 1.570312 -22.359375 1.539062 -22.40625 1.5 -22.46875 C 1.40625 -22.46875 1.335938 -22.472656 1.296875 -22.484375 C 1.253906 -22.492188 1.21875 -22.5 1.1875 -22.5 C 1.1875 -22.476562 1.164062 -22.445312 1.125 -22.40625 C 1.082031 -22.382812 1.0625 -22.347656 1.0625 -22.296875 C 1.0625 -22.171875 1.082031 -22.082031 1.125 -22.03125 C 1.195312 -21.96875 1.21875 -21.828125 1.1875 -21.609375 L 1.09375 -21.3125 L 1 -20.96875 C 1 -20.925781 1.019531 -20.882812 1.0625 -20.84375 C 1.101562 -20.800781 1.125 -20.753906 1.125 -20.703125 C 1.082031 -20.703125 1.0625 -20.691406 1.0625 -20.671875 C 1 -20.609375 0.96875 -20.566406 0.96875 -20.546875 C 1.050781 -20.523438 1.070312 -20.445312 1.03125 -20.3125 C 0.957031 -20.25 0.921875 -20.179688 0.921875 -20.109375 C 0.921875 -19.890625 0.9375 -19.722656 0.96875 -19.609375 L 1.03125 -19.25 C 1.03125 -19.207031 0.992188 -19.160156 0.921875 -19.109375 L 1 -19.109375 L 1.03125 -19.078125 C 1.164062 -19.148438 1.285156 -19.1875 1.390625 -19.1875 L 1.390625 -19.484375 C 1.328125 -19.503906 1.269531 -19.550781 1.21875 -19.625 C 1.175781 -19.707031 1.164062 -19.769531 1.1875 -19.8125 L 1.5 -19.90625 L 1.71875 -20.015625 C 1.65625 -20.054688 1.625 -20.085938 1.625 -20.109375 C 1.625 -20.222656 1.710938 -20.28125 1.890625 -20.28125 C 1.847656 -20.320312 1.828125 -20.351562 1.828125 -20.375 L 1.796875 -20.4375 C 1.921875 -20.570312 1.984375 -20.640625 1.984375 -20.640625 C 1.984375 -20.679688 1.960938 -20.726562 1.921875 -20.78125 L 1.859375 -20.90625 C 1.941406 -21 2.03125 -21.046875 2.125 -21.046875 L 2.453125 -21.109375 C 2.234375 -21.109375 2.125 -21.148438 2.125 -21.234375 C 2.125 -21.285156 2.164062 -21.335938 2.25 -21.390625 C 2.34375 -21.441406 2.445312 -21.46875 2.5625 -21.46875 C 2.46875 -21.539062 2.441406 -21.617188 2.484375 -21.703125 C 2.460938 -21.703125 2.429688 -21.71875 2.390625 -21.75 C 2.347656 -21.78125 2.328125 -21.820312 2.328125 -21.875 C 2.328125 -21.9375 2.40625 -22 2.5625 -22.0625 C 2.601562 -22.113281 2.601562 -22.148438 2.5625 -22.171875 C 2.5625 -22.210938 2.570312 -22.242188 2.59375 -22.265625 Z M 2.65625 -21.375 C 2.65625 -21.351562 2.675781 -21.34375 2.71875 -21.34375 C 2.894531 -21.34375 3.003906 -21.363281 3.046875 -21.40625 L 3.09375 -21.46875 L 3.09375 -21.578125 C 3.09375 -21.640625 3.101562 -21.679688 3.125 -21.703125 C 3.03125 -21.703125 2.984375 -21.679688 2.984375 -21.640625 C 2.941406 -21.546875 2.921875 -21.488281 2.921875 -21.46875 C 2.859375 -21.382812 2.769531 -21.351562 2.65625 -21.375 Z M 1.421875 -17.984375 C 1.335938 -18.097656 1.304688 -18.195312 1.328125 -18.28125 C 1.328125 -18.394531 1.382812 -18.472656 1.5 -18.515625 C 1.5625 -18.515625 1.632812 -18.5625 1.71875 -18.65625 C 1.695312 -18.78125 1.609375 -18.84375 1.453125 -18.84375 C 1.328125 -18.820312 1.195312 -18.820312 1.0625 -18.84375 C 1.0625 -18.78125 1.035156 -18.71875 0.984375 -18.65625 C 0.941406 -18.601562 0.910156 -18.566406 0.890625 -18.546875 C 0.960938 -18.503906 1.007812 -18.460938 1.03125 -18.421875 C 1.050781 -18.378906 1.039062 -18.320312 1 -18.25 L 0.96875 -18.046875 L 1 -17.78125 C 0.945312 -17.695312 0.921875 -17.632812 0.921875 -17.59375 C 0.859375 -17.519531 0.859375 -17.460938 0.921875 -17.421875 C 0.921875 -17.398438 0.925781 -17.382812 0.9375 -17.375 C 0.957031 -17.363281 0.976562 -17.347656 1 -17.328125 C 1.019531 -17.328125 1.050781 -17.300781 1.09375 -17.25 L 0.921875 -15 C 0.773438 -14.914062 0.722656 -14.875 0.765625 -14.875 C 0.804688 -14.875 0.859375 -14.835938 0.921875 -14.765625 C 0.898438 -14.703125 0.847656 -14.660156 0.765625 -14.640625 L 0.734375 -14.34375 C 0.859375 -14.269531 0.898438 -14.222656 0.859375 -14.203125 L 0.765625 -14.109375 L 0.921875 -13.96875 L 0.828125 -12.546875 C 0.742188 -12.472656 0.703125 -12.40625 0.703125 -12.34375 C 0.703125 -12.300781 0.742188 -12.234375 0.828125 -12.140625 C 0.828125 -12.140625 0.832031 -12.132812 0.84375 -12.125 C 0.851562 -12.113281 0.859375 -12.109375 0.859375 -12.109375 C 0.859375 -12.066406 0.835938 -12.03125 0.796875 -12 C 0.753906 -11.96875 0.707031 -11.941406 0.65625 -11.921875 C 0.6875 -11.847656 0.691406 -11.785156 0.671875 -11.734375 C 0.660156 -11.679688 0.625 -11.640625 0.5625 -11.609375 C 0.695312 -11.523438 0.765625 -11.4375 0.765625 -11.34375 C 0.765625 -11.28125 0.753906 -11.21875 0.734375 -11.15625 C 0.710938 -11.101562 0.6875 -11.054688 0.65625 -11.015625 C 0.59375 -10.835938 0.53125 -10.75 0.46875 -10.75 C 0.625 -10.664062 0.703125 -10.597656 0.703125 -10.546875 C 0.703125 -10.546875 0.691406 -10.539062 0.671875 -10.53125 C 0.660156 -10.519531 0.65625 -10.515625 0.65625 -10.515625 L 0.65625 -10.546875 C 0.59375 -10.484375 0.539062 -10.410156 0.5 -10.328125 C 0.457031 -10.253906 0.4375 -10.195312 0.4375 -10.15625 C 0.4375 -10.113281 0.445312 -10.082031 0.46875 -10.0625 C 0.507812 -10.03125 0.53125 -10.003906 0.53125 -9.984375 L 0.4375 -9.921875 C 0.5 -9.898438 0.53125 -9.832031 0.53125 -9.71875 L 0.53125 -9.453125 C 0.53125 -9.453125 0.523438 -9.4375 0.515625 -9.40625 C 0.503906 -9.375 0.488281 -9.3125 0.46875 -9.21875 C 0.46875 -9.195312 0.460938 -9.175781 0.453125 -9.15625 C 0.441406 -9.132812 0.4375 -9.113281 0.4375 -9.09375 L 0.53125 -8.890625 C 0.570312 -8.847656 0.59375 -8.796875 0.59375 -8.734375 C 0.59375 -8.660156 0.570312 -8.601562 0.53125 -8.5625 C 0.46875 -8.46875 0.4375 -8.398438 0.4375 -8.359375 C 0.4375 -8.316406 0.445312 -8.296875 0.46875 -8.296875 L 0.46875 -8.234375 L 0.65625 -8.234375 C 0.613281 -8.234375 0.59375 -8.265625 0.59375 -8.328125 C 0.570312 -8.347656 0.5625 -8.378906 0.5625 -8.421875 C 0.675781 -8.492188 0.765625 -8.53125 0.828125 -8.53125 C 0.785156 -8.59375 0.738281 -8.707031 0.6875 -8.875 C 0.644531 -9.039062 0.625 -9.191406 0.625 -9.328125 C 0.625 -9.367188 0.648438 -9.410156 0.703125 -9.453125 C 0.742188 -9.503906 0.765625 -9.660156 0.765625 -9.921875 L 0.828125 -10.1875 C 0.890625 -10.25 0.890625 -10.296875 0.828125 -10.328125 C 0.804688 -10.347656 0.816406 -10.410156 0.859375 -10.515625 L 1 -10.515625 C 0.925781 -10.804688 0.890625 -10.984375 0.890625 -11.046875 C 0.890625 -11.140625 0.910156 -11.238281 0.953125 -11.34375 C 1.003906 -11.457031 1.050781 -11.546875 1.09375 -11.609375 L 0.921875 -11.609375 L 0.921875 -11.578125 L 0.765625 -11.578125 C 0.765625 -11.597656 0.742188 -11.609375 0.703125 -11.609375 L 0.96875 -11.875 C 1.050781 -11.96875 1.09375 -12.035156 1.09375 -12.078125 L 1.03125 -12.375 C 0.957031 -12.53125 0.957031 -12.675781 1.03125 -12.8125 L 1.296875 -12.8125 C 1.117188 -12.8125 1.03125 -12.863281 1.03125 -12.96875 C 1.03125 -13.039062 1.070312 -13.164062 1.15625 -13.34375 C 1.25 -13.5 1.296875 -13.628906 1.296875 -13.734375 L 1.265625 -14.078125 C 1.242188 -14.097656 1.234375 -14.140625 1.234375 -14.203125 C 1.179688 -14.296875 1.15625 -14.394531 1.15625 -14.5 L 1.125 -14.671875 C 1.125 -14.710938 1.144531 -14.765625 1.1875 -14.828125 C 1.257812 -15.054688 1.285156 -15.160156 1.265625 -15.140625 C 1.265625 -15.179688 1.285156 -15.289062 1.328125 -15.46875 L 1.359375 -15.59375 C 1.359375 -15.613281 1.335938 -15.691406 1.296875 -15.828125 C 1.222656 -16.023438 1.222656 -16.148438 1.296875 -16.203125 C 1.316406 -16.242188 1.359375 -16.285156 1.421875 -16.328125 C 1.441406 -16.421875 1.453125 -16.578125 1.453125 -16.796875 C 1.453125 -17.015625 1.507812 -17.144531 1.625 -17.1875 C 1.445312 -17.300781 1.425781 -17.398438 1.5625 -17.484375 L 1.453125 -17.65625 C 1.503906 -17.71875 1.492188 -17.828125 1.421875 -17.984375 Z M 4.671875 -17.828125 C 4.671875 -17.828125 4.640625 -17.789062 4.578125 -17.71875 L 4.78125 -17.71875 Z M 5.28125 -17.515625 L 5.515625 -17.65625 L 5.3125 -17.71875 C 5.21875 -17.632812 5.171875 -17.59375 5.171875 -17.59375 Z M 5.703125 -14.609375 C 5.679688 -14.609375 5.671875 -14.617188 5.671875 -14.640625 L 5.609375 -14.640625 L 5.546875 -14.609375 C 5.546875 -14.609375 5.539062 -14.597656 5.53125 -14.578125 C 5.519531 -14.566406 5.515625 -14.5625 5.515625 -14.5625 C 5.515625 -14.5625 5.503906 -14.554688 5.484375 -14.546875 C 5.472656 -14.535156 5.457031 -14.53125 5.4375 -14.53125 L 5.578125 -14.5 C 5.597656 -14.476562 5.625 -14.472656 5.65625 -14.484375 C 5.6875 -14.492188 5.703125 -14.507812 5.703125 -14.53125 Z M 5.140625 -13.5 C 5.054688 -13.59375 4.945312 -13.640625 4.8125 -13.640625 C 4.8125 -13.546875 4.84375 -13.46875 4.90625 -13.40625 Z M 4.84375 -12.546875 L 4.84375 -12.640625 L 4.71875 -12.640625 L 4.71875 -12.546875 Z M 3.890625 -12.34375 L 3.921875 -12.546875 C 3.785156 -12.546875 3.695312 -12.476562 3.65625 -12.34375 Z M 5.015625 -12.109375 L 4.90625 -12.21875 L 4.671875 -12.21875 L 4.640625 -12.078125 C 4.640625 -11.972656 4.71875 -11.921875 4.875 -11.921875 L 4.90625 -11.953125 C 4.925781 -11.972656 4.941406 -11.988281 4.953125 -12 C 4.972656 -12.007812 4.984375 -12.023438 4.984375 -12.046875 Z M 4.34375 -11.8125 L 4.40625 -11.84375 L 4.453125 -11.875 C 4.535156 -11.945312 4.578125 -12.003906 4.578125 -12.046875 C 4.597656 -12.109375 4.539062 -12.140625 4.40625 -12.140625 L 4.375 -12.078125 L 4.375 -11.984375 Z M 4.046875 -11.28125 L 3.921875 -11.34375 L 3.84375 -11.078125 L 4.015625 -10.953125 L 4.1875 -11.046875 C 4.269531 -11.097656 4.3125 -11.132812 4.3125 -11.15625 C 4.3125 -11.175781 4.296875 -11.195312 4.265625 -11.21875 C 4.234375 -11.238281 4.207031 -11.25 4.1875 -11.25 Z M 4.984375 -10.6875 L 4.984375 -10.78125 L 4.78125 -10.78125 L 4.78125 -10.6875 Z M 4.640625 -10.421875 C 4.617188 -10.421875 4.609375 -10.441406 4.609375 -10.484375 L 4.375 -10.484375 L 4.375 -10.328125 L 4.640625 -10.328125 Z M 5.015625 -9.625 C 4.921875 -9.707031 4.832031 -9.75 4.75 -9.75 C 4.65625 -9.726562 4.609375 -9.664062 4.609375 -9.5625 L 4.75 -9.5625 C 4.769531 -9.539062 4.8125 -9.53125 4.875 -9.53125 Z M 5.640625 -9.265625 C 5.597656 -9.390625 5.507812 -9.429688 5.375 -9.390625 C 5.3125 -9.328125 5.300781 -9.296875 5.34375 -9.296875 L 5.34375 -9.1875 Z M 4.640625 -8.859375 C 4.597656 -8.835938 4.53125 -8.820312 4.4375 -8.8125 C 4.351562 -8.800781 4.253906 -8.773438 4.140625 -8.734375 L 4.140625 -8.59375 C 4.140625 -8.59375 4.144531 -8.585938 4.15625 -8.578125 C 4.175781 -8.566406 4.1875 -8.5625 4.1875 -8.5625 L 4.25 -8.5625 L 4.28125 -8.53125 L 4.578125 -8.53125 L 4.578125 -8.6875 C 4.710938 -8.6875 4.800781 -8.703125 4.84375 -8.734375 C 4.84375 -8.773438 4.832031 -8.804688 4.8125 -8.828125 L 4.78125 -8.890625 L 4.78125 -8.921875 L 4.8125 -9.09375 L 4.375 -9.125 C 4.375 -8.96875 4.382812 -8.878906 4.40625 -8.859375 Z M 4.25 -8.46875 C 4.25 -8.4375 4.203125 -8.421875 4.109375 -8.421875 L 4.140625 -8.46875 C 4.097656 -8.507812 4.023438 -8.53125 3.921875 -8.53125 L 3.84375 -8.359375 L 3.921875 -8.359375 C 3.921875 -8.359375 3.925781 -8.351562 3.9375 -8.34375 C 3.945312 -8.332031 3.953125 -8.328125 3.953125 -8.328125 C 3.972656 -8.328125 4.003906 -8.304688 4.046875 -8.265625 L 4.109375 -8.359375 L 4.1875 -8.328125 C 4.1875 -8.285156 4.207031 -8.265625 4.25 -8.265625 L 4.484375 -8.296875 C 4.484375 -8.410156 4.40625 -8.46875 4.25 -8.46875 Z M 4.109375 -8.03125 L 4.109375 -8 L 4.140625 -7.96875 L 4.40625 -7.96875 C 4.34375 -8.050781 4.222656 -8.09375 4.046875 -8.09375 C 4.085938 -8.070312 4.097656 -8.050781 4.078125 -8.03125 Z M 0.625 -7.96875 C 0.519531 -7.8125 0.46875 -7.753906 0.46875 -7.796875 C 0.394531 -7.734375 0.359375 -7.679688 0.359375 -7.640625 L 0.328125 -6.5 C 0.328125 -6.519531 0.347656 -6.617188 0.390625 -6.796875 C 0.390625 -6.929688 0.394531 -7.019531 0.40625 -7.0625 C 0.425781 -7.113281 0.4375 -7.148438 0.4375 -7.171875 C 0.4375 -7.191406 0.457031 -7.269531 0.5 -7.40625 C 0.5625 -7.46875 0.59375 -7.519531 0.59375 -7.5625 Z M 4.71875 -7.796875 L 4.75 -7.765625 L 4.78125 -7.703125 L 4.84375 -7.671875 C 4.84375 -7.648438 4.851562 -7.640625 4.875 -7.640625 C 4.894531 -7.640625 4.90625 -7.648438 4.90625 -7.671875 L 4.984375 -7.734375 C 4.984375 -7.773438 4.96875 -7.804688 4.9375 -7.828125 C 4.9375 -7.828125 4.925781 -7.832031 4.90625 -7.84375 C 4.882812 -7.851562 4.875 -7.875 4.875 -7.90625 L 4.8125 -7.90625 L 4.78125 -7.96875 L 4.546875 -7.96875 L 4.40625 -7.859375 L 4.546875 -7.765625 L 4.609375 -7.765625 L 4.640625 -7.796875 Z M 4.046875 -7.734375 L 4.046875 -7.640625 L 4.25 -7.703125 L 4.21875 -7.828125 Z M 5.84375 -7.640625 L 5.84375 -7.234375 C 5.800781 -7.273438 5.78125 -7.296875 5.78125 -7.296875 L 5.703125 -7.328125 L 5.703125 -7.375 C 5.753906 -7.375 5.78125 -7.40625 5.78125 -7.46875 L 5.78125 -7.640625 Z M 4.3125 -7.40625 C 4.269531 -7.40625 4.203125 -7.359375 4.109375 -7.265625 L 4.21875 -7.171875 C 4.300781 -7.171875 4.378906 -7.203125 4.453125 -7.265625 C 4.472656 -7.359375 4.425781 -7.40625 4.3125 -7.40625 Z M 3.546875 -6.875 C 3.566406 -6.78125 3.625 -6.734375 3.71875 -6.734375 C 3.757812 -6.734375 3.78125 -6.742188 3.78125 -6.765625 L 3.84375 -6.765625 L 3.921875 -6.796875 L 3.953125 -7 L 3.84375 -7.0625 C 3.800781 -7.0625 3.769531 -7.078125 3.75 -7.109375 C 3.6875 -7.109375 3.65625 -7.140625 3.65625 -7.203125 L 3.453125 -7.203125 L 3.390625 -7.171875 L 3.390625 -7.140625 L 3.3125 -7.109375 L 3.28125 -7.0625 C 3.351562 -7 3.410156 -6.96875 3.453125 -6.96875 Z M 4.71875 -7 L 4.109375 -7.0625 L 4.109375 -6.90625 Z M 3.25 -6.34375 C 3.320312 -6.269531 3.410156 -6.234375 3.515625 -6.234375 L 3.625 -6.46875 L 3.3125 -6.46875 Z M 4.640625 -6.171875 C 4.734375 -6.234375 4.78125 -6.300781 4.78125 -6.375 C 4.738281 -6.414062 4.660156 -6.4375 4.546875 -6.4375 L 4.515625 -6.4375 C 4.398438 -6.375 4.34375 -6.316406 4.34375 -6.265625 C 4.34375 -6.203125 4.378906 -6.171875 4.453125 -6.171875 Z M 5.34375 -6.265625 C 5.320312 -6.296875 5.253906 -6.3125 5.140625 -6.3125 C 5.035156 -6.195312 5.003906 -6.109375 5.046875 -6.046875 C 5.179688 -6.015625 5.28125 -6.035156 5.34375 -6.109375 Z M 0.234375 -5.90625 C 0.316406 -5.90625 0.359375 -5.925781 0.359375 -5.96875 C 0.359375 -6.101562 0.347656 -6.171875 0.328125 -6.171875 C 0.265625 -6.109375 0.234375 -6.019531 0.234375 -5.90625 Z M 3.515625 -5.546875 C 3.554688 -5.546875 3.59375 -5.554688 3.625 -5.578125 L 3.6875 -5.609375 L 3.75 -5.671875 L 3.421875 -5.734375 L 3.453125 -5.640625 C 3.453125 -5.578125 3.472656 -5.546875 3.515625 -5.546875 Z M 3.3125 -5.671875 L 2.921875 -5.609375 L 3.3125 -5.515625 Z M 4.21875 -5.4375 L 4.375 -5.4375 L 4.40625 -5.578125 L 4.25 -5.578125 Z M 3.8125 -5.046875 C 3.8125 -5.046875 3.804688 -5.039062 3.796875 -5.03125 C 3.785156 -5.019531 3.78125 -5.015625 3.78125 -5.015625 C 3.820312 -4.941406 3.929688 -4.90625 4.109375 -4.90625 C 4.160156 -4.90625 4.21875 -4.953125 4.28125 -5.046875 L 4.546875 -5.046875 L 4.578125 -5.078125 L 4.578125 -5.109375 L 4.609375 -5.171875 L 4.3125 -5.25 C 4.289062 -5.21875 4.28125 -5.179688 4.28125 -5.140625 L 4.25 -5.140625 L 4.21875 -5.171875 L 4.078125 -5.171875 C 3.992188 -5.171875 3.941406 -5.148438 3.921875 -5.109375 C 3.898438 -5.109375 3.878906 -5.097656 3.859375 -5.078125 C 3.847656 -5.054688 3.84375 -5.046875 3.84375 -5.046875 Z M 5.34375 -5.015625 L 5.40625 -4.984375 L 5.40625 -4.9375 L 5.46875 -4.9375 L 5.546875 -4.90625 C 5.722656 -4.90625 5.8125 -4.972656 5.8125 -5.109375 L 5.578125 -5.140625 Z M 3.125 -5.109375 L 2.984375 -5.015625 C 3.054688 -4.941406 3.132812 -4.90625 3.21875 -4.90625 L 3.28125 -4.9375 L 3.359375 -4.984375 L 3.453125 -5.015625 Z M 4.71875 -5.015625 L 4.90625 -5.015625 L 4.90625 -5.109375 L 4.71875 -5.109375 Z M 3.75 -4.84375 C 3.707031 -4.800781 3.6875 -4.769531 3.6875 -4.75 L 4.046875 -4.71875 L 4.046875 -4.84375 L 3.78125 -4.90625 C 3.78125 -4.863281 3.769531 -4.84375 3.75 -4.84375 Z M 5.203125 -4.875 L 5.203125 -4.90625 L 4.984375 -4.90625 L 4.984375 -4.71875 L 5.25 -4.75 L 5.25 -4.84375 Z M 4.640625 -4.453125 L 4.578125 -4.671875 C 4.398438 -4.609375 4.28125 -4.546875 4.21875 -4.484375 C 4.238281 -4.460938 4.300781 -4.453125 4.40625 -4.453125 Z M 2.921875 -4.453125 L 3.21875 -4.453125 L 3.21875 -4.546875 L 2.921875 -4.546875 Z M 4.453125 -4.25 L 4.453125 -4.140625 L 4.640625 -4.140625 L 4.640625 -4.25 Z M 5.203125 -3.953125 C 5.335938 -4.015625 5.335938 -4.078125 5.203125 -4.140625 L 5.171875 -4.109375 L 5.078125 -4.109375 C 5.078125 -4.046875 5.097656 -4.015625 5.140625 -4.015625 Z M 3.125 -3.84375 C 3.1875 -3.800781 3.207031 -3.769531 3.1875 -3.75 L 3.390625 -3.75 C 3.453125 -3.789062 3.484375 -3.820312 3.484375 -3.84375 L 3.515625 -3.84375 C 3.515625 -3.875 3.523438 -3.894531 3.546875 -3.90625 C 3.566406 -3.914062 3.578125 -3.921875 3.578125 -3.921875 C 3.535156 -3.921875 3.515625 -3.929688 3.515625 -3.953125 L 3.359375 -3.953125 C 3.203125 -3.992188 3.113281 -4.023438 3.09375 -4.046875 C 3.09375 -4.003906 3.078125 -3.972656 3.046875 -3.953125 C 3.046875 -3.953125 3.046875 -3.941406 3.046875 -3.921875 C 3.046875 -3.898438 3.046875 -3.890625 3.046875 -3.890625 L 3.09375 -3.84375 Z M 4.90625 -3.625 C 5 -3.570312 5.085938 -3.546875 5.171875 -3.546875 C 5.265625 -3.546875 5.320312 -3.554688 5.34375 -3.578125 L 5.375 -3.578125 L 5.375 -3.84375 C 5.3125 -3.84375 5.253906 -3.867188 5.203125 -3.921875 C 5.179688 -3.898438 5.15625 -3.890625 5.125 -3.890625 C 5.09375 -3.890625 5.066406 -3.875 5.046875 -3.84375 L 5.015625 -3.921875 L 4.90625 -3.890625 C 4.863281 -3.835938 4.863281 -3.75 4.90625 -3.625 Z M 0.203125 -3.625 L 0.0625 -3.515625 L 0.171875 -3.421875 Z M 4.75 -3.453125 L 4.84375 -3.390625 L 4.984375 -3.546875 L 4.84375 -3.578125 Z M 4.046875 -3.1875 C 4.160156 -3.1875 4.269531 -3.207031 4.375 -3.25 C 4.488281 -3.289062 4.554688 -3.359375 4.578125 -3.453125 L 4.40625 -3.453125 C 4.226562 -3.453125 4.109375 -3.40625 4.046875 -3.3125 Z M 4.28125 -3.15625 C 4.21875 -3.0625 4.21875 -2.992188 4.28125 -2.953125 L 4.25 -2.859375 L 4.28125 -2.828125 L 4.28125 -2.75 L 4.453125 -2.71875 L 4.546875 -3.09375 C 4.453125 -3.132812 4.363281 -3.15625 4.28125 -3.15625 Z M 4.78125 -2.75 C 4.800781 -2.726562 4.851562 -2.71875 4.9375 -2.71875 L 5.046875 -2.6875 L 5.109375 -2.6875 C 5.171875 -2.6875 5.21875 -2.695312 5.25 -2.71875 C 5.289062 -2.738281 5.3125 -2.785156 5.3125 -2.859375 L 5.015625 -2.859375 C 4.941406 -2.859375 4.863281 -2.878906 4.78125 -2.921875 L 4.71875 -2.75 Z M 3.625 -2.78125 L 3.3125 -2.78125 L 3.3125 -2.65625 L 3.625 -2.65625 Z M 5.25 -2.484375 C 5.15625 -2.484375 5.066406 -2.4375 4.984375 -2.34375 C 4.910156 -2.257812 4.863281 -2.207031 4.84375 -2.1875 L 5.109375 -2.125 C 5.304688 -2.1875 5.441406 -2.304688 5.515625 -2.484375 Z M 4.78125 -2.390625 L 4.515625 -2.390625 C 4.515625 -2.367188 4.503906 -2.351562 4.484375 -2.34375 C 4.460938 -2.332031 4.453125 -2.328125 4.453125 -2.328125 L 4.375 -2.1875 C 4.3125 -2.164062 4.269531 -2.125 4.25 -2.0625 L 4.25 -1.921875 C 4.382812 -1.921875 4.453125 -1.910156 4.453125 -1.890625 L 4.40625 -1.765625 C 4.40625 -1.671875 4.421875 -1.613281 4.453125 -1.59375 L 4.640625 -1.65625 L 4.75 -1.765625 L 4.78125 -2.125 L 4.609375 -2.15625 C 4.703125 -2.15625 4.757812 -2.164062 4.78125 -2.1875 Z M 5.015625 -1.796875 C 5.078125 -1.796875 5.175781 -1.835938 5.3125 -1.921875 C 5.269531 -1.960938 5.144531 -1.984375 4.9375 -1.984375 Z M 5.515625 -1.859375 L 5.28125 -1.859375 L 5.171875 -1.65625 L 5.4375 -1.65625 C 5.488281 -1.695312 5.515625 -1.742188 5.515625 -1.796875 Z M 5.515625 -1.859375 "/></g></g></g><g fill="#096036" fill-opacity="1"><g transform="translate(87.328392, 125.618004)"><g><path d="M 14.46875 -22.140625 C 15.09375 -21.515625 15.367188 -20.671875 15.296875 -19.609375 C 15.191406 -18.742188 14.914062 -17.984375 14.46875 -17.328125 L 6.90625 -5.96875 C 7.914062 -6.0625 8.664062 -6.160156 9.15625 -6.265625 C 10.394531 -6.515625 11.789062 -6.925781 13.34375 -7.5 C 13.382812 -7.519531 13.460938 -7.53125 13.578125 -7.53125 C 13.773438 -7.53125 13.9375 -7.460938 14.0625 -7.328125 C 14.195312 -7.203125 14.265625 -7.039062 14.265625 -6.84375 L 14.140625 -2.0625 C 14.140625 -1.707031 13.972656 -1.492188 13.640625 -1.421875 C 11.828125 -0.910156 10.035156 -0.523438 8.265625 -0.265625 C 7.085938 -0.0859375 5.96875 0 4.90625 0 C 3.488281 0 2.335938 -0.253906 1.453125 -0.765625 C 0.265625 -1.429688 -0.328125 -2.347656 -0.328125 -3.515625 C -0.328125 -4.335938 -0.03125 -5.410156 0.5625 -6.734375 C 0.695312 -6.984375 0.863281 -7.265625 1.0625 -7.578125 C 1.257812 -7.898438 1.457031 -8.207031 1.65625 -8.5 L 2.78125 -10.21875 C 3.3125 -10.96875 3.703125 -11.535156 3.953125 -11.921875 L 7.40625 -16.984375 L 1.328125 -15.703125 L 1.15625 -15.671875 C 0.957031 -15.671875 0.789062 -15.738281 0.65625 -15.875 C 0.53125 -16.019531 0.476562 -16.179688 0.5 -16.359375 L 0.59375 -21.140625 C 0.59375 -21.515625 0.789062 -21.734375 1.1875 -21.796875 L 9 -22.96875 C 9.988281 -23.070312 10.707031 -23.125 11.15625 -23.125 C 12.695312 -23.125 13.800781 -22.796875 14.46875 -22.140625 Z M 1.390625 -20.671875 C 1.523438 -20.785156 1.59375 -20.882812 1.59375 -20.96875 C 1.59375 -21.0625 1.570312 -21.109375 1.53125 -21.109375 C 1.457031 -21.128906 1.410156 -21.171875 1.390625 -21.234375 C 1.390625 -21.128906 1.320312 -21.050781 1.1875 -21 C 1.238281 -20.957031 1.285156 -20.898438 1.328125 -20.828125 C 1.367188 -20.765625 1.390625 -20.710938 1.390625 -20.671875 Z M 2.0625 -21.078125 L 1.921875 -21.078125 L 1.921875 -20.96875 L 2.0625 -20.96875 Z M 1.921875 -19.84375 L 1.71875 -19.875 L 1.71875 -19.8125 L 1.859375 -19.78125 Z M 4.84375 -18.953125 L 5.046875 -18.953125 L 5.046875 -19.078125 L 4.84375 -19.078125 Z M 7.96875 -18.984375 L 7.828125 -18.984375 L 7.828125 -18.8125 L 7.96875 -18.8125 Z M 3.71875 -18.890625 C 3.71875 -18.859375 3.703125 -18.789062 3.671875 -18.6875 C 3.640625 -18.59375 3.644531 -18.515625 3.6875 -18.453125 C 3.84375 -18.453125 3.953125 -18.441406 4.015625 -18.421875 L 4.140625 -18.546875 L 4.140625 -18.71875 L 3.921875 -18.890625 Z M 7.109375 -18.625 C 7.148438 -18.6875 7.160156 -18.726562 7.140625 -18.75 L 7.140625 -18.890625 L 6.90625 -18.890625 L 6.90625 -18.65625 C 6.90625 -18.632812 6.9375 -18.625 7 -18.625 Z M 4.671875 -18.3125 C 4.671875 -18.40625 4.707031 -18.476562 4.78125 -18.53125 C 4.863281 -18.59375 4.914062 -18.632812 4.9375 -18.65625 L 4.8125 -18.71875 L 4.78125 -18.75 C 4.625 -18.707031 4.503906 -18.640625 4.421875 -18.546875 C 4.347656 -18.460938 4.300781 -18.410156 4.28125 -18.390625 L 4.484375 -18.28125 L 4.671875 -18.28125 Z M 3.546875 -18.6875 L 3.25 -18.6875 L 3.25 -18.578125 L 3.546875 -18.578125 Z M 5.546875 -18.6875 C 5.453125 -18.613281 5.40625 -18.554688 5.40625 -18.515625 L 6.078125 -18.390625 L 6.109375 -18.578125 C 6.035156 -18.578125 5.976562 -18.59375 5.9375 -18.625 C 5.851562 -18.664062 5.722656 -18.6875 5.546875 -18.6875 Z M 10.015625 -18.484375 L 9.828125 -18.515625 L 9.796875 -18.421875 L 9.984375 -18.359375 Z M 4.21875 -18.3125 L 3.75 -18.421875 L 3.75 -18.21875 Z M 4.71875 -17.859375 C 4.738281 -17.878906 4.75 -17.910156 4.75 -17.953125 L 4.640625 -18.046875 L 4.453125 -18.09375 L 4.375 -18.046875 C 4.375 -18.046875 4.367188 -18.039062 4.359375 -18.03125 C 4.347656 -18.019531 4.34375 -18.015625 4.34375 -18.015625 C 4.320312 -18.015625 4.300781 -17.992188 4.28125 -17.953125 C 4.28125 -17.867188 4.300781 -17.828125 4.34375 -17.828125 L 4.375 -17.75 L 4.640625 -17.71875 L 4.640625 -17.78125 C 4.640625 -17.78125 4.644531 -17.785156 4.65625 -17.796875 C 4.664062 -17.816406 4.671875 -17.828125 4.671875 -17.828125 Z M 5.140625 -17.984375 L 5.078125 -17.984375 C 5.078125 -17.984375 5.070312 -17.988281 5.0625 -18 C 5.050781 -18.007812 5.046875 -18.015625 5.046875 -18.015625 L 4.984375 -18.046875 L 4.90625 -18.046875 C 4.820312 -17.960938 4.78125 -17.890625 4.78125 -17.828125 C 4.78125 -17.753906 4.859375 -17.6875 5.015625 -17.625 L 5.140625 -17.75 Z M 7.4375 -17.890625 C 7.4375 -17.816406 7.476562 -17.75 7.5625 -17.6875 C 7.613281 -17.726562 7.640625 -17.804688 7.640625 -17.921875 L 7.5625 -17.921875 L 7.5 -17.890625 Z M 6.265625 -17.625 C 6.117188 -17.664062 5.96875 -17.6875 5.8125 -17.6875 L 6.109375 -17.6875 C 5.992188 -17.820312 5.894531 -17.890625 5.8125 -17.890625 L 5.78125 -17.6875 L 5.8125 -17.6875 C 5.675781 -17.6875 5.578125 -17.609375 5.515625 -17.453125 L 5.703125 -17.421875 C 5.753906 -17.378906 5.867188 -17.359375 6.046875 -17.359375 C 6.171875 -17.359375 6.242188 -17.398438 6.265625 -17.484375 Z M 4.078125 -17.5625 L 4.078125 -17.6875 L 3.890625 -17.6875 L 3.890625 -17.5625 Z M 4.140625 -17.1875 L 4.109375 -17.21875 L 3.984375 -17.296875 L 3.921875 -17.21875 L 3.890625 -17.15625 L 3.953125 -17.125 C 3.992188 -17.082031 4.035156 -17.082031 4.078125 -17.125 Z M 8.6875 -15.296875 C 8.84375 -15.367188 8.929688 -15.4375 8.953125 -15.5 L 8.625 -15.734375 C 8.625 -15.617188 8.601562 -15.519531 8.5625 -15.4375 C 8.644531 -15.34375 8.6875 -15.296875 8.6875 -15.296875 Z M 7.828125 -14.828125 C 7.742188 -14.828125 7.703125 -14.851562 7.703125 -14.90625 L 7.5 -14.796875 C 7.5 -14.710938 7.519531 -14.660156 7.5625 -14.640625 C 7.632812 -14.679688 7.703125 -14.679688 7.765625 -14.640625 Z M 13.8125 -6.109375 C 13.914062 -6.066406 14.003906 -6.078125 14.078125 -6.140625 L 13.9375 -6.203125 C 13.875 -6.203125 13.832031 -6.210938 13.8125 -6.234375 Z M 11.21875 -5.96875 C 11.238281 -5.96875 11.257812 -5.960938 11.28125 -5.953125 C 11.300781 -5.941406 11.320312 -5.9375 11.34375 -5.9375 C 11.394531 -5.894531 11.441406 -5.894531 11.484375 -5.9375 L 11.484375 -6.078125 L 11.21875 -6.078125 Z M 13.609375 -6 C 13.609375 -6 13.613281 -5.992188 13.625 -5.984375 C 13.632812 -5.972656 13.640625 -5.96875 13.640625 -5.96875 L 13.671875 -5.96875 L 13.640625 -6.078125 Z M 7.234375 -3.890625 L 7.296875 -3.890625 L 7.296875 -4.078125 L 7.234375 -4.078125 Z M 10.8125 -3.8125 L 10.859375 -3.75 L 10.953125 -3.8125 L 10.953125 -3.84375 Z M 10.6875 -3.78125 C 10.53125 -3.820312 10.453125 -3.8125 10.453125 -3.75 C 10.453125 -3.707031 10.5 -3.6875 10.59375 -3.6875 C 10.65625 -3.6875 10.6875 -3.695312 10.6875 -3.71875 Z M 8.625 -3.578125 L 8.765625 -3.625 L 8.765625 -3.6875 L 8.625 -3.625 Z M 9.859375 -3.578125 L 9.953125 -3.578125 L 9.953125 -3.6875 L 9.859375 -3.6875 Z M 12.515625 -2.625 L 12.546875 -2.59375 L 12.640625 -2.625 L 12.640625 -2.65625 Z M 6.40625 -1.796875 C 6.445312 -1.796875 6.476562 -1.785156 6.5 -1.765625 L 7.5 -1.765625 C 7.5 -1.734375 7.546875 -1.71875 7.640625 -1.71875 L 7.703125 -1.6875 C 7.859375 -1.707031 7.9375 -1.71875 7.9375 -1.71875 C 7.9375 -1.675781 7.945312 -1.65625 7.96875 -1.65625 C 8.144531 -1.65625 8.34375 -1.691406 8.5625 -1.765625 Z M 6.40625 -1.796875 "/></g></g></g><g fill="#096036" fill-opacity="1"><g transform="translate(104.085009, 125.618004)"><g><path d="M 14.46875 -22.140625 C 15.09375 -21.515625 15.367188 -20.671875 15.296875 -19.609375 C 15.191406 -18.742188 14.914062 -17.984375 14.46875 -17.328125 L 6.90625 -5.96875 C 7.914062 -6.0625 8.664062 -6.160156 9.15625 -6.265625 C 10.394531 -6.515625 11.789062 -6.925781 13.34375 -7.5 C 13.382812 -7.519531 13.460938 -7.53125 13.578125 -7.53125 C 13.773438 -7.53125 13.9375 -7.460938 14.0625 -7.328125 C 14.195312 -7.203125 14.265625 -7.039062 14.265625 -6.84375 L 14.140625 -2.0625 C 14.140625 -1.707031 13.972656 -1.492188 13.640625 -1.421875 C 11.828125 -0.910156 10.035156 -0.523438 8.265625 -0.265625 C 7.085938 -0.0859375 5.96875 0 4.90625 0 C 3.488281 0 2.335938 -0.253906 1.453125 -0.765625 C 0.265625 -1.429688 -0.328125 -2.347656 -0.328125 -3.515625 C -0.328125 -4.335938 -0.03125 -5.410156 0.5625 -6.734375 C 0.695312 -6.984375 0.863281 -7.265625 1.0625 -7.578125 C 1.257812 -7.898438 1.457031 -8.207031 1.65625 -8.5 L 2.78125 -10.21875 C 3.3125 -10.96875 3.703125 -11.535156 3.953125 -11.921875 L 7.40625 -16.984375 L 1.328125 -15.703125 L 1.15625 -15.671875 C 0.957031 -15.671875 0.789062 -15.738281 0.65625 -15.875 C 0.53125 -16.019531 0.476562 -16.179688 0.5 -16.359375 L 0.59375 -21.140625 C 0.59375 -21.515625 0.789062 -21.734375 1.1875 -21.796875 L 9 -22.96875 C 9.988281 -23.070312 10.707031 -23.125 11.15625 -23.125 C 12.695312 -23.125 13.800781 -22.796875 14.46875 -22.140625 Z M 1.390625 -20.671875 C 1.523438 -20.785156 1.59375 -20.882812 1.59375 -20.96875 C 1.59375 -21.0625 1.570312 -21.109375 1.53125 -21.109375 C 1.457031 -21.128906 1.410156 -21.171875 1.390625 -21.234375 C 1.390625 -21.128906 1.320312 -21.050781 1.1875 -21 C 1.238281 -20.957031 1.285156 -20.898438 1.328125 -20.828125 C 1.367188 -20.765625 1.390625 -20.710938 1.390625 -20.671875 Z M 2.0625 -21.078125 L 1.921875 -21.078125 L 1.921875 -20.96875 L 2.0625 -20.96875 Z M 1.921875 -19.84375 L 1.71875 -19.875 L 1.71875 -19.8125 L 1.859375 -19.78125 Z M 4.84375 -18.953125 L 5.046875 -18.953125 L 5.046875 -19.078125 L 4.84375 -19.078125 Z M 7.96875 -18.984375 L 7.828125 -18.984375 L 7.828125 -18.8125 L 7.96875 -18.8125 Z M 3.71875 -18.890625 C 3.71875 -18.859375 3.703125 -18.789062 3.671875 -18.6875 C 3.640625 -18.59375 3.644531 -18.515625 3.6875 -18.453125 C 3.84375 -18.453125 3.953125 -18.441406 4.015625 -18.421875 L 4.140625 -18.546875 L 4.140625 -18.71875 L 3.921875 -18.890625 Z M 7.109375 -18.625 C 7.148438 -18.6875 7.160156 -18.726562 7.140625 -18.75 L 7.140625 -18.890625 L 6.90625 -18.890625 L 6.90625 -18.65625 C 6.90625 -18.632812 6.9375 -18.625 7 -18.625 Z M 4.671875 -18.3125 C 4.671875 -18.40625 4.707031 -18.476562 4.78125 -18.53125 C 4.863281 -18.59375 4.914062 -18.632812 4.9375 -18.65625 L 4.8125 -18.71875 L 4.78125 -18.75 C 4.625 -18.707031 4.503906 -18.640625 4.421875 -18.546875 C 4.347656 -18.460938 4.300781 -18.410156 4.28125 -18.390625 L 4.484375 -18.28125 L 4.671875 -18.28125 Z M 3.546875 -18.6875 L 3.25 -18.6875 L 3.25 -18.578125 L 3.546875 -18.578125 Z M 5.546875 -18.6875 C 5.453125 -18.613281 5.40625 -18.554688 5.40625 -18.515625 L 6.078125 -18.390625 L 6.109375 -18.578125 C 6.035156 -18.578125 5.976562 -18.59375 5.9375 -18.625 C 5.851562 -18.664062 5.722656 -18.6875 5.546875 -18.6875 Z M 10.015625 -18.484375 L 9.828125 -18.515625 L 9.796875 -18.421875 L 9.984375 -18.359375 Z M 4.21875 -18.3125 L 3.75 -18.421875 L 3.75 -18.21875 Z M 4.71875 -17.859375 C 4.738281 -17.878906 4.75 -17.910156 4.75 -17.953125 L 4.640625 -18.046875 L 4.453125 -18.09375 L 4.375 -18.046875 C 4.375 -18.046875 4.367188 -18.039062 4.359375 -18.03125 C 4.347656 -18.019531 4.34375 -18.015625 4.34375 -18.015625 C 4.320312 -18.015625 4.300781 -17.992188 4.28125 -17.953125 C 4.28125 -17.867188 4.300781 -17.828125 4.34375 -17.828125 L 4.375 -17.75 L 4.640625 -17.71875 L 4.640625 -17.78125 C 4.640625 -17.78125 4.644531 -17.785156 4.65625 -17.796875 C 4.664062 -17.816406 4.671875 -17.828125 4.671875 -17.828125 Z M 5.140625 -17.984375 L 5.078125 -17.984375 C 5.078125 -17.984375 5.070312 -17.988281 5.0625 -18 C 5.050781 -18.007812 5.046875 -18.015625 5.046875 -18.015625 L 4.984375 -18.046875 L 4.90625 -18.046875 C 4.820312 -17.960938 4.78125 -17.890625 4.78125 -17.828125 C 4.78125 -17.753906 4.859375 -17.6875 5.015625 -17.625 L 5.140625 -17.75 Z M 7.4375 -17.890625 C 7.4375 -17.816406 7.476562 -17.75 7.5625 -17.6875 C 7.613281 -17.726562 7.640625 -17.804688 7.640625 -17.921875 L 7.5625 -17.921875 L 7.5 -17.890625 Z M 6.265625 -17.625 C 6.117188 -17.664062 5.96875 -17.6875 5.8125 -17.6875 L 6.109375 -17.6875 C 5.992188 -17.820312 5.894531 -17.890625 5.8125 -17.890625 L 5.78125 -17.6875 L 5.8125 -17.6875 C 5.675781 -17.6875 5.578125 -17.609375 5.515625 -17.453125 L 5.703125 -17.421875 C 5.753906 -17.378906 5.867188 -17.359375 6.046875 -17.359375 C 6.171875 -17.359375 6.242188 -17.398438 6.265625 -17.484375 Z M 4.078125 -17.5625 L 4.078125 -17.6875 L 3.890625 -17.6875 L 3.890625 -17.5625 Z M 4.140625 -17.1875 L 4.109375 -17.21875 L 3.984375 -17.296875 L 3.921875 -17.21875 L 3.890625 -17.15625 L 3.953125 -17.125 C 3.992188 -17.082031 4.035156 -17.082031 4.078125 -17.125 Z M 8.6875 -15.296875 C 8.84375 -15.367188 8.929688 -15.4375 8.953125 -15.5 L 8.625 -15.734375 C 8.625 -15.617188 8.601562 -15.519531 8.5625 -15.4375 C 8.644531 -15.34375 8.6875 -15.296875 8.6875 -15.296875 Z M 7.828125 -14.828125 C 7.742188 -14.828125 7.703125 -14.851562 7.703125 -14.90625 L 7.5 -14.796875 C 7.5 -14.710938 7.519531 -14.660156 7.5625 -14.640625 C 7.632812 -14.679688 7.703125 -14.679688 7.765625 -14.640625 Z M 13.8125 -6.109375 C 13.914062 -6.066406 14.003906 -6.078125 14.078125 -6.140625 L 13.9375 -6.203125 C 13.875 -6.203125 13.832031 -6.210938 13.8125 -6.234375 Z M 11.21875 -5.96875 C 11.238281 -5.96875 11.257812 -5.960938 11.28125 -5.953125 C 11.300781 -5.941406 11.320312 -5.9375 11.34375 -5.9375 C 11.394531 -5.894531 11.441406 -5.894531 11.484375 -5.9375 L 11.484375 -6.078125 L 11.21875 -6.078125 Z M 13.609375 -6 C 13.609375 -6 13.613281 -5.992188 13.625 -5.984375 C 13.632812 -5.972656 13.640625 -5.96875 13.640625 -5.96875 L 13.671875 -5.96875 L 13.640625 -6.078125 Z M 7.234375 -3.890625 L 7.296875 -3.890625 L 7.296875 -4.078125 L 7.234375 -4.078125 Z M 10.8125 -3.8125 L 10.859375 -3.75 L 10.953125 -3.8125 L 10.953125 -3.84375 Z M 10.6875 -3.78125 C 10.53125 -3.820312 10.453125 -3.8125 10.453125 -3.75 C 10.453125 -3.707031 10.5 -3.6875 10.59375 -3.6875 C 10.65625 -3.6875 10.6875 -3.695312 10.6875 -3.71875 Z M 8.625 -3.578125 L 8.765625 -3.625 L 8.765625 -3.6875 L 8.625 -3.625 Z M 9.859375 -3.578125 L 9.953125 -3.578125 L 9.953125 -3.6875 L 9.859375 -3.6875 Z M 12.515625 -2.625 L 12.546875 -2.59375 L 12.640625 -2.625 L 12.640625 -2.65625 Z M 6.40625 -1.796875 C 6.445312 -1.796875 6.476562 -1.785156 6.5 -1.765625 L 7.5 -1.765625 C 7.5 -1.734375 7.546875 -1.71875 7.640625 -1.71875 L 7.703125 -1.6875 C 7.859375 -1.707031 7.9375 -1.71875 7.9375 -1.71875 C 7.9375 -1.675781 7.945312 -1.65625 7.96875 -1.65625 C 8.144531 -1.65625 8.34375 -1.691406 8.5625 -1.765625 Z M 6.40625 -1.796875 "/></g></g></g><g fill="#160404" fill-opacity="1"><g transform="translate(120.849565, 125.618004)"><g><path d="M 5.96875 -23.265625 C 6.164062 -23.265625 6.328125 -23.191406 6.453125 -23.046875 C 6.578125 -22.898438 6.640625 -22.726562 6.640625 -22.53125 C 6.304688 -18.613281 6.0625 -14.972656 5.90625 -11.609375 C 5.863281 -9.929688 5.84375 -8.695312 5.84375 -7.90625 L 5.734375 -7.90625 C 5.628906 -7.90625 5.554688 -7.890625 5.515625 -7.859375 L 5.46875 -7.640625 L 5.546875 -7.640625 C 5.472656 -7.523438 5.347656 -7.4375 5.171875 -7.375 C 5.367188 -7.28125 5.59375 -7.234375 5.84375 -7.234375 L 5.84375 -6.265625 L 5.671875 -6.265625 L 5.546875 -6.203125 L 5.4375 -6.171875 C 5.4375 -6.171875 5.414062 -6.148438 5.375 -6.109375 L 5.375 -5.96875 C 5.351562 -5.925781 5.34375 -5.875 5.34375 -5.8125 C 5.34375 -5.675781 5.351562 -5.5625 5.375 -5.46875 L 5.515625 -5.578125 L 5.578125 -5.609375 L 5.734375 -5.703125 C 5.765625 -5.722656 5.78125 -5.78125 5.78125 -5.875 L 5.8125 -5.90625 L 5.84375 -5.90625 C 5.820312 -5.6875 5.8125 -5.210938 5.8125 -4.484375 C 5.757812 -4.523438 5.703125 -4.523438 5.640625 -4.484375 C 5.640625 -4.390625 5.648438 -4.34375 5.671875 -4.34375 L 5.703125 -4.3125 L 5.703125 -4.28125 L 5.78125 -4.28125 L 5.78125 -4.3125 L 5.8125 -4.3125 L 5.8125 -3.09375 C 5.8125 -3.175781 5.765625 -3.25 5.671875 -3.3125 L 5.40625 -3.3125 C 5.40625 -3.25 5.414062 -3.21875 5.4375 -3.21875 L 5.4375 -3.125 L 5.46875 -3.09375 L 5.46875 -3.046875 C 5.5625 -3.023438 5.675781 -3.039062 5.8125 -3.09375 L 5.8125 -0.765625 C 5.8125 -0.316406 5.585938 -0.09375 5.140625 -0.09375 L 0.359375 0 C 0.160156 0 0 -0.0625 -0.125 -0.1875 C -0.257812 -0.320312 -0.328125 -0.492188 -0.328125 -0.703125 C -0.242188 -5.472656 -0.132812 -9.054688 0 -11.453125 C 0.132812 -14.328125 0.253906 -16.460938 0.359375 -17.859375 C 0.378906 -17.835938 0.414062 -17.828125 0.46875 -17.828125 L 0.5 -17.984375 C 0.476562 -18.003906 0.441406 -18.015625 0.390625 -18.015625 L 0.703125 -22.5 C 0.722656 -22.914062 0.953125 -23.125 1.390625 -23.125 Z M 2.59375 -22.265625 C 2.632812 -22.335938 2.6875 -22.375 2.75 -22.375 C 2.925781 -22.375 3.050781 -22.296875 3.125 -22.140625 C 3.1875 -21.984375 3.25 -21.894531 3.3125 -21.875 C 3.363281 -21.914062 3.390625 -21.992188 3.390625 -22.109375 C 3.335938 -22.171875 3.378906 -22.222656 3.515625 -22.265625 L 3.921875 -22.265625 C 3.921875 -22.359375 3.875 -22.414062 3.78125 -22.4375 C 3.644531 -22.414062 3.566406 -22.414062 3.546875 -22.4375 C 3.523438 -22.457031 3.484375 -22.46875 3.421875 -22.46875 L 3.25 -22.40625 C 3.1875 -22.332031 3.144531 -22.296875 3.125 -22.296875 C 3.050781 -22.296875 2.984375 -22.332031 2.921875 -22.40625 L 2.75 -22.46875 L 2.296875 -22.46875 C 2.316406 -22.40625 2.300781 -22.347656 2.25 -22.296875 L 2.0625 -22.296875 C 1.988281 -22.410156 1.953125 -22.445312 1.953125 -22.40625 C 1.953125 -22.425781 1.929688 -22.414062 1.890625 -22.375 L 1.828125 -22.234375 L 1.6875 -22.234375 C 1.6875 -22.234375 1.65625 -22.265625 1.59375 -22.328125 C 1.570312 -22.359375 1.539062 -22.40625 1.5 -22.46875 C 1.40625 -22.46875 1.335938 -22.472656 1.296875 -22.484375 C 1.253906 -22.492188 1.21875 -22.5 1.1875 -22.5 C 1.1875 -22.476562 1.164062 -22.445312 1.125 -22.40625 C 1.082031 -22.382812 1.0625 -22.347656 1.0625 -22.296875 C 1.0625 -22.171875 1.082031 -22.082031 1.125 -22.03125 C 1.195312 -21.96875 1.21875 -21.828125 1.1875 -21.609375 L 1.09375 -21.3125 L 1 -20.96875 C 1 -20.925781 1.019531 -20.882812 1.0625 -20.84375 C 1.101562 -20.800781 1.125 -20.753906 1.125 -20.703125 C 1.082031 -20.703125 1.0625 -20.691406 1.0625 -20.671875 C 1 -20.609375 0.96875 -20.566406 0.96875 -20.546875 C 1.050781 -20.523438 1.070312 -20.445312 1.03125 -20.3125 C 0.957031 -20.25 0.921875 -20.179688 0.921875 -20.109375 C 0.921875 -19.890625 0.9375 -19.722656 0.96875 -19.609375 L 1.03125 -19.25 C 1.03125 -19.207031 0.992188 -19.160156 0.921875 -19.109375 L 1 -19.109375 L 1.03125 -19.078125 C 1.164062 -19.148438 1.285156 -19.1875 1.390625 -19.1875 L 1.390625 -19.484375 C 1.328125 -19.503906 1.269531 -19.550781 1.21875 -19.625 C 1.175781 -19.707031 1.164062 -19.769531 1.1875 -19.8125 L 1.5 -19.90625 L 1.71875 -20.015625 C 1.65625 -20.054688 1.625 -20.085938 1.625 -20.109375 C 1.625 -20.222656 1.710938 -20.28125 1.890625 -20.28125 C 1.847656 -20.320312 1.828125 -20.351562 1.828125 -20.375 L 1.796875 -20.4375 C 1.921875 -20.570312 1.984375 -20.640625 1.984375 -20.640625 C 1.984375 -20.679688 1.960938 -20.726562 1.921875 -20.78125 L 1.859375 -20.90625 C 1.941406 -21 2.03125 -21.046875 2.125 -21.046875 L 2.453125 -21.109375 C 2.234375 -21.109375 2.125 -21.148438 2.125 -21.234375 C 2.125 -21.285156 2.164062 -21.335938 2.25 -21.390625 C 2.34375 -21.441406 2.445312 -21.46875 2.5625 -21.46875 C 2.46875 -21.539062 2.441406 -21.617188 2.484375 -21.703125 C 2.460938 -21.703125 2.429688 -21.71875 2.390625 -21.75 C 2.347656 -21.78125 2.328125 -21.820312 2.328125 -21.875 C 2.328125 -21.9375 2.40625 -22 2.5625 -22.0625 C 2.601562 -22.113281 2.601562 -22.148438 2.5625 -22.171875 C 2.5625 -22.210938 2.570312 -22.242188 2.59375 -22.265625 Z M 2.65625 -21.375 C 2.65625 -21.351562 2.675781 -21.34375 2.71875 -21.34375 C 2.894531 -21.34375 3.003906 -21.363281 3.046875 -21.40625 L 3.09375 -21.46875 L 3.09375 -21.578125 C 3.09375 -21.640625 3.101562 -21.679688 3.125 -21.703125 C 3.03125 -21.703125 2.984375 -21.679688 2.984375 -21.640625 C 2.941406 -21.546875 2.921875 -21.488281 2.921875 -21.46875 C 2.859375 -21.382812 2.769531 -21.351562 2.65625 -21.375 Z M 1.421875 -17.984375 C 1.335938 -18.097656 1.304688 -18.195312 1.328125 -18.28125 C 1.328125 -18.394531 1.382812 -18.472656 1.5 -18.515625 C 1.5625 -18.515625 1.632812 -18.5625 1.71875 -18.65625 C 1.695312 -18.78125 1.609375 -18.84375 1.453125 -18.84375 C 1.328125 -18.820312 1.195312 -18.820312 1.0625 -18.84375 C 1.0625 -18.78125 1.035156 -18.71875 0.984375 -18.65625 C 0.941406 -18.601562 0.910156 -18.566406 0.890625 -18.546875 C 0.960938 -18.503906 1.007812 -18.460938 1.03125 -18.421875 C 1.050781 -18.378906 1.039062 -18.320312 1 -18.25 L 0.96875 -18.046875 L 1 -17.78125 C 0.945312 -17.695312 0.921875 -17.632812 0.921875 -17.59375 C 0.859375 -17.519531 0.859375 -17.460938 0.921875 -17.421875 C 0.921875 -17.398438 0.925781 -17.382812 0.9375 -17.375 C 0.957031 -17.363281 0.976562 -17.347656 1 -17.328125 C 1.019531 -17.328125 1.050781 -17.300781 1.09375 -17.25 L 0.921875 -15 C 0.773438 -14.914062 0.722656 -14.875 0.765625 -14.875 C 0.804688 -14.875 0.859375 -14.835938 0.921875 -14.765625 C 0.898438 -14.703125 0.847656 -14.660156 0.765625 -14.640625 L 0.734375 -14.34375 C 0.859375 -14.269531 0.898438 -14.222656 0.859375 -14.203125 L 0.765625 -14.109375 L 0.921875 -13.96875 L 0.828125 -12.546875 C 0.742188 -12.472656 0.703125 -12.40625 0.703125 -12.34375 C 0.703125 -12.300781 0.742188 -12.234375 0.828125 -12.140625 C 0.828125 -12.140625 0.832031 -12.132812 0.84375 -12.125 C 0.851562 -12.113281 0.859375 -12.109375 0.859375 -12.109375 C 0.859375 -12.066406 0.835938 -12.03125 0.796875 -12 C 0.753906 -11.96875 0.707031 -11.941406 0.65625 -11.921875 C 0.6875 -11.847656 0.691406 -11.785156 0.671875 -11.734375 C 0.660156 -11.679688 0.625 -11.640625 0.5625 -11.609375 C 0.695312 -11.523438 0.765625 -11.4375 0.765625 -11.34375 C 0.765625 -11.28125 0.753906 -11.21875 0.734375 -11.15625 C 0.710938 -11.101562 0.6875 -11.054688 0.65625 -11.015625 C 0.59375 -10.835938 0.53125 -10.75 0.46875 -10.75 C 0.625 -10.664062 0.703125 -10.597656 0.703125 -10.546875 C 0.703125 -10.546875 0.691406 -10.539062 0.671875 -10.53125 C 0.660156 -10.519531 0.65625 -10.515625 0.65625 -10.515625 L 0.65625 -10.546875 C 0.59375 -10.484375 0.539062 -10.410156 0.5 -10.328125 C 0.457031 -10.253906 0.4375 -10.195312 0.4375 -10.15625 C 0.4375 -10.113281 0.445312 -10.082031 0.46875 -10.0625 C 0.507812 -10.03125 0.53125 -10.003906 0.53125 -9.984375 L 0.4375 -9.921875 C 0.5 -9.898438 0.53125 -9.832031 0.53125 -9.71875 L 0.53125 -9.453125 C 0.53125 -9.453125 0.523438 -9.4375 0.515625 -9.40625 C 0.503906 -9.375 0.488281 -9.3125 0.46875 -9.21875 C 0.46875 -9.195312 0.460938 -9.175781 0.453125 -9.15625 C 0.441406 -9.132812 0.4375 -9.113281 0.4375 -9.09375 L 0.53125 -8.890625 C 0.570312 -8.847656 0.59375 -8.796875 0.59375 -8.734375 C 0.59375 -8.660156 0.570312 -8.601562 0.53125 -8.5625 C 0.46875 -8.46875 0.4375 -8.398438 0.4375 -8.359375 C 0.4375 -8.316406 0.445312 -8.296875 0.46875 -8.296875 L 0.46875 -8.234375 L 0.65625 -8.234375 C 0.613281 -8.234375 0.59375 -8.265625 0.59375 -8.328125 C 0.570312 -8.347656 0.5625 -8.378906 0.5625 -8.421875 C 0.675781 -8.492188 0.765625 -8.53125 0.828125 -8.53125 C 0.785156 -8.59375 0.738281 -8.707031 0.6875 -8.875 C 0.644531 -9.039062 0.625 -9.191406 0.625 -9.328125 C 0.625 -9.367188 0.648438 -9.410156 0.703125 -9.453125 C 0.742188 -9.503906 0.765625 -9.660156 0.765625 -9.921875 L 0.828125 -10.1875 C 0.890625 -10.25 0.890625 -10.296875 0.828125 -10.328125 C 0.804688 -10.347656 0.816406 -10.410156 0.859375 -10.515625 L 1 -10.515625 C 0.925781 -10.804688 0.890625 -10.984375 0.890625 -11.046875 C 0.890625 -11.140625 0.910156 -11.238281 0.953125 -11.34375 C 1.003906 -11.457031 1.050781 -11.546875 1.09375 -11.609375 L 0.921875 -11.609375 L 0.921875 -11.578125 L 0.765625 -11.578125 C 0.765625 -11.597656 0.742188 -11.609375 0.703125 -11.609375 L 0.96875 -11.875 C 1.050781 -11.96875 1.09375 -12.035156 1.09375 -12.078125 L 1.03125 -12.375 C 0.957031 -12.53125 0.957031 -12.675781 1.03125 -12.8125 L 1.296875 -12.8125 C 1.117188 -12.8125 1.03125 -12.863281 1.03125 -12.96875 C 1.03125 -13.039062 1.070312 -13.164062 1.15625 -13.34375 C 1.25 -13.5 1.296875 -13.628906 1.296875 -13.734375 L 1.265625 -14.078125 C 1.242188 -14.097656 1.234375 -14.140625 1.234375 -14.203125 C 1.179688 -14.296875 1.15625 -14.394531 1.15625 -14.5 L 1.125 -14.671875 C 1.125 -14.710938 1.144531 -14.765625 1.1875 -14.828125 C 1.257812 -15.054688 1.285156 -15.160156 1.265625 -15.140625 C 1.265625 -15.179688 1.285156 -15.289062 1.328125 -15.46875 L 1.359375 -15.59375 C 1.359375 -15.613281 1.335938 -15.691406 1.296875 -15.828125 C 1.222656 -16.023438 1.222656 -16.148438 1.296875 -16.203125 C 1.316406 -16.242188 1.359375 -16.285156 1.421875 -16.328125 C 1.441406 -16.421875 1.453125 -16.578125 1.453125 -16.796875 C 1.453125 -17.015625 1.507812 -17.144531 1.625 -17.1875 C 1.445312 -17.300781 1.425781 -17.398438 1.5625 -17.484375 L 1.453125 -17.65625 C 1.503906 -17.71875 1.492188 -17.828125 1.421875 -17.984375 Z M 4.671875 -17.828125 C 4.671875 -17.828125 4.640625 -17.789062 4.578125 -17.71875 L 4.78125 -17.71875 Z M 5.28125 -17.515625 L 5.515625 -17.65625 L 5.3125 -17.71875 C 5.21875 -17.632812 5.171875 -17.59375 5.171875 -17.59375 Z M 5.703125 -14.609375 C 5.679688 -14.609375 5.671875 -14.617188 5.671875 -14.640625 L 5.609375 -14.640625 L 5.546875 -14.609375 C 5.546875 -14.609375 5.539062 -14.597656 5.53125 -14.578125 C 5.519531 -14.566406 5.515625 -14.5625 5.515625 -14.5625 C 5.515625 -14.5625 5.503906 -14.554688 5.484375 -14.546875 C 5.472656 -14.535156 5.457031 -14.53125 5.4375 -14.53125 L 5.578125 -14.5 C 5.597656 -14.476562 5.625 -14.472656 5.65625 -14.484375 C 5.6875 -14.492188 5.703125 -14.507812 5.703125 -14.53125 Z M 5.140625 -13.5 C 5.054688 -13.59375 4.945312 -13.640625 4.8125 -13.640625 C 4.8125 -13.546875 4.84375 -13.46875 4.90625 -13.40625 Z M 4.84375 -12.546875 L 4.84375 -12.640625 L 4.71875 -12.640625 L 4.71875 -12.546875 Z M 3.890625 -12.34375 L 3.921875 -12.546875 C 3.785156 -12.546875 3.695312 -12.476562 3.65625 -12.34375 Z M 5.015625 -12.109375 L 4.90625 -12.21875 L 4.671875 -12.21875 L 4.640625 -12.078125 C 4.640625 -11.972656 4.71875 -11.921875 4.875 -11.921875 L 4.90625 -11.953125 C 4.925781 -11.972656 4.941406 -11.988281 4.953125 -12 C 4.972656 -12.007812 4.984375 -12.023438 4.984375 -12.046875 Z M 4.34375 -11.8125 L 4.40625 -11.84375 L 4.453125 -11.875 C 4.535156 -11.945312 4.578125 -12.003906 4.578125 -12.046875 C 4.597656 -12.109375 4.539062 -12.140625 4.40625 -12.140625 L 4.375 -12.078125 L 4.375 -11.984375 Z M 4.046875 -11.28125 L 3.921875 -11.34375 L 3.84375 -11.078125 L 4.015625 -10.953125 L 4.1875 -11.046875 C 4.269531 -11.097656 4.3125 -11.132812 4.3125 -11.15625 C 4.3125 -11.175781 4.296875 -11.195312 4.265625 -11.21875 C 4.234375 -11.238281 4.207031 -11.25 4.1875 -11.25 Z M 4.984375 -10.6875 L 4.984375 -10.78125 L 4.78125 -10.78125 L 4.78125 -10.6875 Z M 4.640625 -10.421875 C 4.617188 -10.421875 4.609375 -10.441406 4.609375 -10.484375 L 4.375 -10.484375 L 4.375 -10.328125 L 4.640625 -10.328125 Z M 5.015625 -9.625 C 4.921875 -9.707031 4.832031 -9.75 4.75 -9.75 C 4.65625 -9.726562 4.609375 -9.664062 4.609375 -9.5625 L 4.75 -9.5625 C 4.769531 -9.539062 4.8125 -9.53125 4.875 -9.53125 Z M 5.640625 -9.265625 C 5.597656 -9.390625 5.507812 -9.429688 5.375 -9.390625 C 5.3125 -9.328125 5.300781 -9.296875 5.34375 -9.296875 L 5.34375 -9.1875 Z M 4.640625 -8.859375 C 4.597656 -8.835938 4.53125 -8.820312 4.4375 -8.8125 C 4.351562 -8.800781 4.253906 -8.773438 4.140625 -8.734375 L 4.140625 -8.59375 C 4.140625 -8.59375 4.144531 -8.585938 4.15625 -8.578125 C 4.175781 -8.566406 4.1875 -8.5625 4.1875 -8.5625 L 4.25 -8.5625 L 4.28125 -8.53125 L 4.578125 -8.53125 L 4.578125 -8.6875 C 4.710938 -8.6875 4.800781 -8.703125 4.84375 -8.734375 C 4.84375 -8.773438 4.832031 -8.804688 4.8125 -8.828125 L 4.78125 -8.890625 L 4.78125 -8.921875 L 4.8125 -9.09375 L 4.375 -9.125 C 4.375 -8.96875 4.382812 -8.878906 4.40625 -8.859375 Z M 4.25 -8.46875 C 4.25 -8.4375 4.203125 -8.421875 4.109375 -8.421875 L 4.140625 -8.46875 C 4.097656 -8.507812 4.023438 -8.53125 3.921875 -8.53125 L 3.84375 -8.359375 L 3.921875 -8.359375 C 3.921875 -8.359375 3.925781 -8.351562 3.9375 -8.34375 C 3.945312 -8.332031 3.953125 -8.328125 3.953125 -8.328125 C 3.972656 -8.328125 4.003906 -8.304688 4.046875 -8.265625 L 4.109375 -8.359375 L 4.1875 -8.328125 C 4.1875 -8.285156 4.207031 -8.265625 4.25 -8.265625 L 4.484375 -8.296875 C 4.484375 -8.410156 4.40625 -8.46875 4.25 -8.46875 Z M 4.109375 -8.03125 L 4.109375 -8 L 4.140625 -7.96875 L 4.40625 -7.96875 C 4.34375 -8.050781 4.222656 -8.09375 4.046875 -8.09375 C 4.085938 -8.070312 4.097656 -8.050781 4.078125 -8.03125 Z M 0.625 -7.96875 C 0.519531 -7.8125 0.46875 -7.753906 0.46875 -7.796875 C 0.394531 -7.734375 0.359375 -7.679688 0.359375 -7.640625 L 0.328125 -6.5 C 0.328125 -6.519531 0.347656 -6.617188 0.390625 -6.796875 C 0.390625 -6.929688 0.394531 -7.019531 0.40625 -7.0625 C 0.425781 -7.113281 0.4375 -7.148438 0.4375 -7.171875 C 0.4375 -7.191406 0.457031 -7.269531 0.5 -7.40625 C 0.5625 -7.46875 0.59375 -7.519531 0.59375 -7.5625 Z M 4.71875 -7.796875 L 4.75 -7.765625 L 4.78125 -7.703125 L 4.84375 -7.671875 C 4.84375 -7.648438 4.851562 -7.640625 4.875 -7.640625 C 4.894531 -7.640625 4.90625 -7.648438 4.90625 -7.671875 L 4.984375 -7.734375 C 4.984375 -7.773438 4.96875 -7.804688 4.9375 -7.828125 C 4.9375 -7.828125 4.925781 -7.832031 4.90625 -7.84375 C 4.882812 -7.851562 4.875 -7.875 4.875 -7.90625 L 4.8125 -7.90625 L 4.78125 -7.96875 L 4.546875 -7.96875 L 4.40625 -7.859375 L 4.546875 -7.765625 L 4.609375 -7.765625 L 4.640625 -7.796875 Z M 4.046875 -7.734375 L 4.046875 -7.640625 L 4.25 -7.703125 L 4.21875 -7.828125 Z M 5.84375 -7.640625 L 5.84375 -7.234375 C 5.800781 -7.273438 5.78125 -7.296875 5.78125 -7.296875 L 5.703125 -7.328125 L 5.703125 -7.375 C 5.753906 -7.375 5.78125 -7.40625 5.78125 -7.46875 L 5.78125 -7.640625 Z M 4.3125 -7.40625 C 4.269531 -7.40625 4.203125 -7.359375 4.109375 -7.265625 L 4.21875 -7.171875 C 4.300781 -7.171875 4.378906 -7.203125 4.453125 -7.265625 C 4.472656 -7.359375 4.425781 -7.40625 4.3125 -7.40625 Z M 3.546875 -6.875 C 3.566406 -6.78125 3.625 -6.734375 3.71875 -6.734375 C 3.757812 -6.734375 3.78125 -6.742188 3.78125 -6.765625 L 3.84375 -6.765625 L 3.921875 -6.796875 L 3.953125 -7 L 3.84375 -7.0625 C 3.800781 -7.0625 3.769531 -7.078125 3.75 -7.109375 C 3.6875 -7.109375 3.65625 -7.140625 3.65625 -7.203125 L 3.453125 -7.203125 L 3.390625 -7.171875 L 3.390625 -7.140625 L 3.3125 -7.109375 L 3.28125 -7.0625 C 3.351562 -7 3.410156 -6.96875 3.453125 -6.96875 Z M 4.71875 -7 L 4.109375 -7.0625 L 4.109375 -6.90625 Z M 3.25 -6.34375 C 3.320312 -6.269531 3.410156 -6.234375 3.515625 -6.234375 L 3.625 -6.46875 L 3.3125 -6.46875 Z M 4.640625 -6.171875 C 4.734375 -6.234375 4.78125 -6.300781 4.78125 -6.375 C 4.738281 -6.414062 4.660156 -6.4375 4.546875 -6.4375 L 4.515625 -6.4375 C 4.398438 -6.375 4.34375 -6.316406 4.34375 -6.265625 C 4.34375 -6.203125 4.378906 -6.171875 4.453125 -6.171875 Z M 5.34375 -6.265625 C 5.320312 -6.296875 5.253906 -6.3125 5.140625 -6.3125 C 5.035156 -6.195312 5.003906 -6.109375 5.046875 -6.046875 C 5.179688 -6.015625 5.28125 -6.035156 5.34375 -6.109375 Z M 0.234375 -5.90625 C 0.316406 -5.90625 0.359375 -5.925781 0.359375 -5.96875 C 0.359375 -6.101562 0.347656 -6.171875 0.328125 -6.171875 C 0.265625 -6.109375 0.234375 -6.019531 0.234375 -5.90625 Z M 3.515625 -5.546875 C 3.554688 -5.546875 3.59375 -5.554688 3.625 -5.578125 L 3.6875 -5.609375 L 3.75 -5.671875 L 3.421875 -5.734375 L 3.453125 -5.640625 C 3.453125 -5.578125 3.472656 -5.546875 3.515625 -5.546875 Z M 3.3125 -5.671875 L 2.921875 -5.609375 L 3.3125 -5.515625 Z M 4.21875 -5.4375 L 4.375 -5.4375 L 4.40625 -5.578125 L 4.25 -5.578125 Z M 3.8125 -5.046875 C 3.8125 -5.046875 3.804688 -5.039062 3.796875 -5.03125 C 3.785156 -5.019531 3.78125 -5.015625 3.78125 -5.015625 C 3.820312 -4.941406 3.929688 -4.90625 4.109375 -4.90625 C 4.160156 -4.90625 4.21875 -4.953125 4.28125 -5.046875 L 4.546875 -5.046875 L 4.578125 -5.078125 L 4.578125 -5.109375 L 4.609375 -5.171875 L 4.3125 -5.25 C 4.289062 -5.21875 4.28125 -5.179688 4.28125 -5.140625 L 4.25 -5.140625 L 4.21875 -5.171875 L 4.078125 -5.171875 C 3.992188 -5.171875 3.941406 -5.148438 3.921875 -5.109375 C 3.898438 -5.109375 3.878906 -5.097656 3.859375 -5.078125 C 3.847656 -5.054688 3.84375 -5.046875 3.84375 -5.046875 Z M 5.34375 -5.015625 L 5.40625 -4.984375 L 5.40625 -4.9375 L 5.46875 -4.9375 L 5.546875 -4.90625 C 5.722656 -4.90625 5.8125 -4.972656 5.8125 -5.109375 L 5.578125 -5.140625 Z M 3.125 -5.109375 L 2.984375 -5.015625 C 3.054688 -4.941406 3.132812 -4.90625 3.21875 -4.90625 L 3.28125 -4.9375 L 3.359375 -4.984375 L 3.453125 -5.015625 Z M 4.71875 -5.015625 L 4.90625 -5.015625 L 4.90625 -5.109375 L 4.71875 -5.109375 Z M 3.75 -4.84375 C 3.707031 -4.800781 3.6875 -4.769531 3.6875 -4.75 L 4.046875 -4.71875 L 4.046875 -4.84375 L 3.78125 -4.90625 C 3.78125 -4.863281 3.769531 -4.84375 3.75 -4.84375 Z M 5.203125 -4.875 L 5.203125 -4.90625 L 4.984375 -4.90625 L 4.984375 -4.71875 L 5.25 -4.75 L 5.25 -4.84375 Z M 4.640625 -4.453125 L 4.578125 -4.671875 C 4.398438 -4.609375 4.28125 -4.546875 4.21875 -4.484375 C 4.238281 -4.460938 4.300781 -4.453125 4.40625 -4.453125 Z M 2.921875 -4.453125 L 3.21875 -4.453125 L 3.21875 -4.546875 L 2.921875 -4.546875 Z M 4.453125 -4.25 L 4.453125 -4.140625 L 4.640625 -4.140625 L 4.640625 -4.25 Z M 5.203125 -3.953125 C 5.335938 -4.015625 5.335938 -4.078125 5.203125 -4.140625 L 5.171875 -4.109375 L 5.078125 -4.109375 C 5.078125 -4.046875 5.097656 -4.015625 5.140625 -4.015625 Z M 3.125 -3.84375 C 3.1875 -3.800781 3.207031 -3.769531 3.1875 -3.75 L 3.390625 -3.75 C 3.453125 -3.789062 3.484375 -3.820312 3.484375 -3.84375 L 3.515625 -3.84375 C 3.515625 -3.875 3.523438 -3.894531 3.546875 -3.90625 C 3.566406 -3.914062 3.578125 -3.921875 3.578125 -3.921875 C 3.535156 -3.921875 3.515625 -3.929688 3.515625 -3.953125 L 3.359375 -3.953125 C 3.203125 -3.992188 3.113281 -4.023438 3.09375 -4.046875 C 3.09375 -4.003906 3.078125 -3.972656 3.046875 -3.953125 C 3.046875 -3.953125 3.046875 -3.941406 3.046875 -3.921875 C 3.046875 -3.898438 3.046875 -3.890625 3.046875 -3.890625 L 3.09375 -3.84375 Z M 4.90625 -3.625 C 5 -3.570312 5.085938 -3.546875 5.171875 -3.546875 C 5.265625 -3.546875 5.320312 -3.554688 5.34375 -3.578125 L 5.375 -3.578125 L 5.375 -3.84375 C 5.3125 -3.84375 5.253906 -3.867188 5.203125 -3.921875 C 5.179688 -3.898438 5.15625 -3.890625 5.125 -3.890625 C 5.09375 -3.890625 5.066406 -3.875 5.046875 -3.84375 L 5.015625 -3.921875 L 4.90625 -3.890625 C 4.863281 -3.835938 4.863281 -3.75 4.90625 -3.625 Z M 0.203125 -3.625 L 0.0625 -3.515625 L 0.171875 -3.421875 Z M 4.75 -3.453125 L 4.84375 -3.390625 L 4.984375 -3.546875 L 4.84375 -3.578125 Z M 4.046875 -3.1875 C 4.160156 -3.1875 4.269531 -3.207031 4.375 -3.25 C 4.488281 -3.289062 4.554688 -3.359375 4.578125 -3.453125 L 4.40625 -3.453125 C 4.226562 -3.453125 4.109375 -3.40625 4.046875 -3.3125 Z M 4.28125 -3.15625 C 4.21875 -3.0625 4.21875 -2.992188 4.28125 -2.953125 L 4.25 -2.859375 L 4.28125 -2.828125 L 4.28125 -2.75 L 4.453125 -2.71875 L 4.546875 -3.09375 C 4.453125 -3.132812 4.363281 -3.15625 4.28125 -3.15625 Z M 4.78125 -2.75 C 4.800781 -2.726562 4.851562 -2.71875 4.9375 -2.71875 L 5.046875 -2.6875 L 5.109375 -2.6875 C 5.171875 -2.6875 5.21875 -2.695312 5.25 -2.71875 C 5.289062 -2.738281 5.3125 -2.785156 5.3125 -2.859375 L 5.015625 -2.859375 C 4.941406 -2.859375 4.863281 -2.878906 4.78125 -2.921875 L 4.71875 -2.75 Z M 3.625 -2.78125 L 3.3125 -2.78125 L 3.3125 -2.65625 L 3.625 -2.65625 Z M 5.25 -2.484375 C 5.15625 -2.484375 5.066406 -2.4375 4.984375 -2.34375 C 4.910156 -2.257812 4.863281 -2.207031 4.84375 -2.1875 L 5.109375 -2.125 C 5.304688 -2.1875 5.441406 -2.304688 5.515625 -2.484375 Z M 4.78125 -2.390625 L 4.515625 -2.390625 C 4.515625 -2.367188 4.503906 -2.351562 4.484375 -2.34375 C 4.460938 -2.332031 4.453125 -2.328125 4.453125 -2.328125 L 4.375 -2.1875 C 4.3125 -2.164062 4.269531 -2.125 4.25 -2.0625 L 4.25 -1.921875 C 4.382812 -1.921875 4.453125 -1.910156 4.453125 -1.890625 L 4.40625 -1.765625 C 4.40625 -1.671875 4.421875 -1.613281 4.453125 -1.59375 L 4.640625 -1.65625 L 4.75 -1.765625 L 4.78125 -2.125 L 4.609375 -2.15625 C 4.703125 -2.15625 4.757812 -2.164062 4.78125 -2.1875 Z M 5.015625 -1.796875 C 5.078125 -1.796875 5.175781 -1.835938 5.3125 -1.921875 C 5.269531 -1.960938 5.144531 -1.984375 4.9375 -1.984375 Z M 5.515625 -1.859375 L 5.28125 -1.859375 L 5.171875 -1.65625 L 5.4375 -1.65625 C 5.488281 -1.695312 5.515625 -1.742188 5.515625 -1.796875 Z M 5.515625 -1.859375 "/></g></g></g><g fill="#160404" fill-opacity="1"><g transform="translate(128.083119, 125.618004)"><g><path d="M 14.90625 -22.828125 C 15.0625 -22.671875 15.113281 -22.503906 15.0625 -22.328125 L 14.875 -18.453125 C 14.84375 -18.097656 14.640625 -17.890625 14.265625 -17.828125 L 5.78125 -16.765625 L 5.4375 -12.9375 L 12.40625 -13.34375 C 12.601562 -13.34375 12.769531 -13.273438 12.90625 -13.140625 C 13.039062 -13.003906 13.109375 -12.847656 13.109375 -12.671875 L 13.109375 -8.890625 C 13.109375 -8.472656 12.898438 -8.253906 12.484375 -8.234375 C 11.242188 -8.117188 10.015625 -7.984375 8.796875 -7.828125 C 7.972656 -7.722656 6.832031 -7.492188 5.375 -7.140625 L 5.375 -0.796875 C 5.375 -0.347656 5.164062 -0.113281 4.75 -0.09375 L 0.359375 0 C 0.160156 0 0 -0.0625 -0.125 -0.1875 C -0.257812 -0.320312 -0.328125 -0.492188 -0.328125 -0.703125 C -0.242188 -4.941406 -0.132812 -8.101562 0 -10.1875 C 0.175781 -13.59375 0.484375 -17.460938 0.921875 -21.796875 C 0.972656 -22.203125 1.1875 -22.40625 1.5625 -22.40625 L 14.375 -23.03125 C 14.570312 -23.03125 14.75 -22.960938 14.90625 -22.828125 Z M 4.90625 -21.9375 L 5.046875 -21.84375 L 5.078125 -21.84375 C 5.097656 -21.84375 5.140625 -21.804688 5.203125 -21.734375 C 5.253906 -21.828125 5.28125 -21.882812 5.28125 -21.90625 C 5.28125 -21.96875 5.253906 -22 5.203125 -22 L 5.140625 -21.96875 L 5.109375 -21.96875 Z M 5.609375 -21.734375 C 5.648438 -21.773438 5.671875 -21.84375 5.671875 -21.9375 L 5.375 -22 L 5.375 -21.734375 Z M 2.59375 -21.5 C 2.632812 -21.519531 2.65625 -21.554688 2.65625 -21.609375 C 2.5625 -21.609375 2.515625 -21.640625 2.515625 -21.703125 L 2.625 -21.765625 C 2.550781 -21.765625 2.515625 -21.800781 2.515625 -21.875 L 2.484375 -21.796875 L 2.421875 -21.765625 L 2.390625 -21.640625 L 2.453125 -21.5 C 2.492188 -21.457031 2.515625 -21.425781 2.515625 -21.40625 C 2.515625 -21.425781 2.539062 -21.457031 2.59375 -21.5 Z M 3.21875 -21.640625 L 3.25 -21.703125 L 3.09375 -21.734375 L 3.09375 -21.703125 Z M 4.90625 -21.4375 L 4.90625 -21.5 L 4.71875 -21.5 L 4.71875 -21.4375 Z M 10.15625 -21 L 10.15625 -20.875 L 10.28125 -20.875 L 10.28125 -21 Z M 2.953125 -19.515625 L 2.953125 -19.609375 L 2.890625 -19.609375 L 2.890625 -19.515625 Z M 3.84375 -18.75 C 4 -18.75 4.078125 -18.804688 4.078125 -18.921875 C 4.054688 -18.941406 4.003906 -18.953125 3.921875 -18.953125 L 3.71875 -18.953125 Z M 2.828125 -17.984375 L 2.890625 -18.046875 L 2.78125 -18.09375 L 2.75 -18.015625 Z M 2.859375 -16.828125 L 2.859375 -16.890625 L 2.71875 -16.890625 L 2.71875 -16.828125 Z M 4.109375 -16.5 C 4.109375 -16.582031 4.019531 -16.703125 3.84375 -16.859375 L 3.78125 -16.5 Z M 4.8125 -13.96875 L 4.8125 -14.078125 L 4.78125 -14.109375 L 4.78125 -14.140625 L 4.515625 -14.140625 L 4.515625 -13.90625 Z M 4.046875 -13.96875 L 3.578125 -14 L 3.515625 -13.9375 L 3.515625 -13.8125 C 3.585938 -13.738281 3.675781 -13.703125 3.78125 -13.703125 L 3.84375 -13.765625 L 3.984375 -13.875 Z M 3.453125 -12.1875 C 3.359375 -12.269531 3.3125 -12.3125 3.3125 -12.3125 L 3.65625 -12.3125 C 3.632812 -12.351562 3.59375 -12.398438 3.53125 -12.453125 C 3.476562 -12.515625 3.429688 -12.554688 3.390625 -12.578125 L 3.3125 -12.34375 L 3.125 -12.4375 L 2.828125 -12.25 C 2.867188 -12.175781 2.96875 -12.140625 3.125 -12.140625 C 3.164062 -12.171875 3.273438 -12.1875 3.453125 -12.1875 Z M 10.921875 -9.5625 C 10.984375 -9.488281 11.015625 -9.410156 11.015625 -9.328125 L 11.015625 -9 L 11.078125 -9.421875 L 11.125 -9.6875 C 11.09375 -9.90625 11.054688 -10.070312 11.015625 -10.1875 L 11.015625 -12.046875 C 11.015625 -11.960938 10.984375 -11.894531 10.921875 -11.84375 Z M 2.828125 -10.328125 L 2.828125 -10.25 L 2.921875 -10.25 L 2.921875 -10.328125 Z M 5.015625 -9.296875 C 5.117188 -9.296875 5.238281 -9.316406 5.375 -9.359375 C 5.289062 -9.441406 5.25 -9.484375 5.25 -9.484375 C 5.175781 -9.578125 5.0625 -9.625 4.90625 -9.625 L 4.78125 -9.625 C 4.738281 -9.601562 4.671875 -9.59375 4.578125 -9.59375 C 4.617188 -9.394531 4.765625 -9.296875 5.015625 -9.296875 Z M 10.984375 -8.953125 L 10.984375 -8.765625 L 11.046875 -8.765625 L 11.046875 -8.953125 Z M 0.328125 -6.109375 C 0.367188 -6.109375 0.390625 -6.128906 0.390625 -6.171875 C 0.304688 -6.191406 0.265625 -6.238281 0.265625 -6.3125 L 0.328125 -6.375 C 0.285156 -6.375 0.265625 -6.394531 0.265625 -6.4375 C 0.171875 -6.394531 0.125 -6.328125 0.125 -6.234375 C 0.125 -6.191406 0.148438 -6.148438 0.203125 -6.109375 C 0.242188 -6.066406 0.265625 -6.03125 0.265625 -6 C 0.265625 -6.03125 0.285156 -6.066406 0.328125 -6.109375 Z M 0.796875 -6.34375 L 0.796875 -6.265625 L 0.921875 -6.234375 L 1 -6.265625 Z M 1.5625 -3.3125 C 1.738281 -3.3125 1.828125 -3.378906 1.828125 -3.515625 L 1.65625 -3.546875 L 1.453125 -3.546875 Z M 0.53125 -2.65625 L 0.46875 -2.625 L 0.53125 -2.59375 L 0.59375 -2.65625 Z M 0.46875 -1.453125 L 0.46875 -1.390625 L 0.59375 -1.390625 L 0.59375 -1.453125 Z M 1.859375 -1.0625 C 1.859375 -1.175781 1.769531 -1.296875 1.59375 -1.421875 L 1.53125 -1.0625 Z M 1.859375 -1.0625 "/></g></g></g><g fill="#160404" fill-opacity="1"><g transform="translate(144.441557, 125.618004)"><g><path d="M 16.390625 -22.171875 C 16.441406 -22.097656 16.46875 -21.988281 16.46875 -21.84375 C 16.46875 -21.726562 16.453125 -21.640625 16.421875 -21.578125 L 10.421875 -6.90625 L 10.21875 -0.765625 C 10.21875 -0.316406 10 -0.09375 9.5625 -0.09375 L 5.171875 0 C 4.953125 0 4.773438 -0.0703125 4.640625 -0.21875 C 4.515625 -0.363281 4.460938 -0.535156 4.484375 -0.734375 L 5.015625 -6.234375 L 4.640625 -7.203125 C 2.691406 -12.597656 1.539062 -15.816406 1.1875 -16.859375 L 0.59375 -18.453125 C 0.238281 -19.378906 -0.046875 -20.195312 -0.265625 -20.90625 C -0.285156 -20.945312 -0.296875 -21.015625 -0.296875 -21.109375 C -0.296875 -21.265625 -0.25 -21.394531 -0.15625 -21.5 C -0.0703125 -21.613281 0.0195312 -21.691406 0.125 -21.734375 L 3.6875 -23 C 3.820312 -23.039062 3.921875 -23.0625 3.984375 -23.0625 C 4.222656 -23.0625 4.410156 -22.90625 4.546875 -22.59375 L 7.796875 -14.140625 L 8.5 -15.796875 L 8.625 -15.828125 L 8.5 -15.859375 L 11.3125 -22.5 C 11.445312 -22.832031 11.679688 -22.976562 12.015625 -22.9375 L 15.859375 -22.5 C 16.054688 -22.5 16.234375 -22.390625 16.390625 -22.171875 Z M 15.9375 -21.40625 C 15.882812 -21.40625 15.859375 -21.425781 15.859375 -21.46875 C 15.859375 -21.46875 15.851562 -21.472656 15.84375 -21.484375 C 15.832031 -21.492188 15.816406 -21.5 15.796875 -21.5 L 15.09375 -21.5 C 14.894531 -21.613281 14.773438 -21.671875 14.734375 -21.671875 L 14.609375 -21.765625 C 14.554688 -21.765625 14.488281 -21.789062 14.40625 -21.84375 C 14.25 -21.75 14.09375 -21.703125 13.9375 -21.703125 C 13.800781 -21.703125 13.722656 -21.722656 13.703125 -21.765625 C 13.441406 -21.921875 13.222656 -22.035156 13.046875 -22.109375 C 12.867188 -22.148438 12.644531 -22.171875 12.375 -22.171875 C 12.332031 -22.171875 12.28125 -22.144531 12.21875 -22.09375 C 12.164062 -22.050781 12.140625 -22.007812 12.140625 -21.96875 C 12.140625 -21.832031 12.21875 -21.753906 12.375 -21.734375 C 12.53125 -21.710938 12.640625 -21.691406 12.703125 -21.671875 C 12.773438 -21.648438 12.878906 -21.601562 13.015625 -21.53125 C 13.140625 -21.46875 13.316406 -21.4375 13.546875 -21.4375 L 13.9375 -21.4375 L 14.203125 -21.34375 L 14.796875 -21.140625 L 15.40625 -20.90625 C 15.582031 -20.84375 15.691406 -20.8125 15.734375 -20.8125 L 15.9375 -20.84375 Z M 1.71875 -21.375 C 1.894531 -21.414062 1.984375 -21.457031 1.984375 -21.5 C 1.835938 -21.632812 1.726562 -21.703125 1.65625 -21.703125 C 1.519531 -21.703125 1.390625 -21.632812 1.265625 -21.5 C 1.328125 -21.457031 1.367188 -21.378906 1.390625 -21.265625 Z M 0.859375 -21.5 C 0.816406 -21.5 0.796875 -21.535156 0.796875 -21.609375 C 0.734375 -21.585938 0.703125 -21.550781 0.703125 -21.5 L 0.734375 -21.4375 Z M 2.59375 -21.5 L 2.484375 -21.578125 L 2.390625 -21.609375 C 2.273438 -21.554688 2.21875 -21.507812 2.21875 -21.46875 C 2.269531 -21.445312 2.335938 -21.4375 2.421875 -21.4375 Z M 10.8125 -16.234375 C 10.882812 -16.296875 10.929688 -16.328125 10.953125 -16.328125 L 10.859375 -16.421875 C 10.679688 -16.421875 10.578125 -16.410156 10.546875 -16.390625 L 10.453125 -16.390625 L 10.453125 -16.265625 C 10.472656 -16.222656 10.539062 -16.203125 10.65625 -16.203125 C 10.71875 -16.203125 10.769531 -16.210938 10.8125 -16.234375 Z M 7.90625 -14 C 7.945312 -13.957031 8.035156 -13.957031 8.171875 -14 L 8.171875 -14.109375 L 7.90625 -14.140625 L 7.90625 -14.078125 L 7.859375 -14.078125 Z M 7.703125 -13.578125 C 7.703125 -13.578125 7.613281 -13.519531 7.4375 -13.40625 L 7.828125 -13.40625 C 7.921875 -13.40625 8.007812 -13.453125 8.09375 -13.546875 L 7.96875 -13.578125 L 7.828125 -13.609375 C 7.742188 -13.609375 7.703125 -13.597656 7.703125 -13.578125 Z M 7.90625 -12.875 C 7.945312 -12.875 8.007812 -12.894531 8.09375 -12.9375 L 8.234375 -12.875 L 8.359375 -12.875 C 8.359375 -12.894531 8.378906 -12.90625 8.421875 -12.90625 C 8.335938 -12.945312 8.296875 -12.992188 8.296875 -13.046875 C 8.296875 -13.085938 8.253906 -13.109375 8.171875 -13.109375 C 8.117188 -13.109375 8.0625 -13.078125 8 -13.015625 C 7.976562 -13.015625 7.945312 -12.988281 7.90625 -12.9375 L 7.765625 -12.90625 C 7.804688 -12.90625 7.828125 -12.894531 7.828125 -12.875 Z M 8.234375 -12.4375 C 8.191406 -12.394531 8.171875 -12.351562 8.171875 -12.3125 C 8.171875 -12.25 8.210938 -12.191406 8.296875 -12.140625 C 8.378906 -12.191406 8.4375 -12.238281 8.46875 -12.28125 L 8.5625 -12.40625 Z M 6.734375 -12.078125 C 6.671875 -12.078125 6.628906 -12.066406 6.609375 -12.046875 L 6.53125 -12.015625 L 6.609375 -12.015625 L 6.703125 -11.953125 Z M 10.890625 -11.65625 C 10.910156 -11.695312 10.914062 -11.726562 10.90625 -11.75 C 10.894531 -11.769531 10.890625 -11.789062 10.890625 -11.8125 L 10.8125 -11.8125 C 10.8125 -11.8125 10.804688 -11.816406 10.796875 -11.828125 C 10.785156 -11.835938 10.78125 -11.84375 10.78125 -11.84375 L 10.71875 -11.84375 C 10.675781 -11.84375 10.617188 -11.8125 10.546875 -11.75 C 10.597656 -11.707031 10.628906 -11.65625 10.640625 -11.59375 C 10.648438 -11.539062 10.664062 -11.492188 10.6875 -11.453125 L 10.78125 -11.484375 L 10.890625 -11.484375 Z M 7.40625 -11.546875 C 7.445312 -11.566406 7.476562 -11.582031 7.5 -11.59375 C 7.519531 -11.601562 7.539062 -11.625 7.5625 -11.65625 L 7.5625 -11.609375 L 7.765625 -11.609375 L 7.765625 -11.6875 L 7.5625 -11.6875 L 7.5625 -11.65625 L 7.265625 -11.6875 C 7.160156 -11.6875 7.109375 -11.640625 7.109375 -11.546875 C 7.109375 -11.460938 7.148438 -11.421875 7.234375 -11.421875 Z M 7.640625 -11.21875 C 7.835938 -11.21875 7.945312 -11.285156 7.96875 -11.421875 C 7.925781 -11.421875 7.890625 -11.429688 7.859375 -11.453125 L 7.765625 -11.484375 C 7.703125 -11.484375 7.628906 -11.445312 7.546875 -11.375 C 7.472656 -11.3125 7.4375 -11.269531 7.4375 -11.25 Z M 7.203125 -11.046875 L 7.171875 -11.015625 L 7.234375 -10.984375 L 7.265625 -11.015625 Z M 10.59375 -10.09375 C 10.519531 -10.070312 10.460938 -10.082031 10.421875 -10.125 C 10.460938 -10.144531 10.484375 -10.175781 10.484375 -10.21875 C 10.523438 -10.289062 10.601562 -10.347656 10.71875 -10.390625 L 10.859375 -10.453125 L 10.78125 -10.59375 C 10.738281 -10.632812 10.71875 -10.664062 10.71875 -10.6875 C 10.71875 -10.75 10.726562 -10.789062 10.75 -10.8125 L 10.75 -10.921875 L 10.59375 -10.921875 C 10.5625 -10.941406 10.53125 -10.945312 10.5 -10.9375 C 10.46875 -10.925781 10.441406 -10.921875 10.421875 -10.921875 L 10.484375 -10.71875 L 10.421875 -10.6875 L 10.390625 -10.625 C 10.367188 -10.625 10.359375 -10.613281 10.359375 -10.59375 L 10.28125 -10.390625 L 10.25 -10.21875 C 10.25 -10.175781 10.273438 -10.132812 10.328125 -10.09375 C 10.367188 -10.070312 10.410156 -10.015625 10.453125 -9.921875 L 10.59375 -9.921875 C 10.632812 -9.921875 10.695312 -9.941406 10.78125 -9.984375 C 10.78125 -9.984375 10.773438 -9.988281 10.765625 -10 C 10.753906 -10.007812 10.75 -10.015625 10.75 -10.015625 L 10.75 -10.0625 C 10.707031 -10.082031 10.65625 -10.09375 10.59375 -10.09375 Z M 9.828125 -9.859375 L 10.015625 -9.828125 L 10.015625 -9.890625 Z M 9.859375 -3.3125 C 9.878906 -3.363281 9.890625 -3.453125 9.890625 -3.578125 C 9.890625 -3.628906 9.867188 -3.65625 9.828125 -3.65625 L 9.828125 -4.484375 C 9.847656 -4.585938 9.859375 -4.753906 9.859375 -4.984375 C 9.859375 -5.066406 9.847656 -5.128906 9.828125 -5.171875 L 9.828125 -6.109375 L 9.796875 -6.171875 C 9.765625 -6.191406 9.75 -6.222656 9.75 -6.265625 C 9.75 -6.335938 9.765625 -6.375 9.796875 -6.375 C 9.835938 -6.457031 9.847656 -6.546875 9.828125 -6.640625 L 9.796875 -6.765625 L 9.828125 -6.84375 C 9.828125 -6.863281 9.832031 -6.878906 9.84375 -6.890625 C 9.851562 -6.898438 9.859375 -6.914062 9.859375 -6.9375 C 9.878906 -7.019531 9.878906 -7.109375 9.859375 -7.203125 C 9.835938 -7.265625 9.828125 -7.351562 9.828125 -7.46875 C 9.804688 -7.53125 9.804688 -7.628906 9.828125 -7.765625 L 9.859375 -8.03125 L 9.296875 -8.03125 L 9.296875 -5.96875 C 9.316406 -5.90625 9.328125 -5.785156 9.328125 -5.609375 C 9.328125 -5.609375 9.304688 -5.585938 9.265625 -5.546875 L 9.21875 -5.515625 C 9.21875 -5.460938 9.242188 -5.414062 9.296875 -5.375 L 9.328125 -5.28125 C 9.347656 -5.1875 9.359375 -5.019531 9.359375 -4.78125 C 9.359375 -4.5625 9.347656 -4.382812 9.328125 -4.25 L 9.296875 -3.25 C 9.296875 -3.207031 9.269531 -3.1875 9.21875 -3.1875 C 9.195312 -3.164062 9.1875 -3.132812 9.1875 -3.09375 C 9.1875 -3.039062 9.195312 -3.003906 9.21875 -2.984375 C 9.21875 -2.984375 9.222656 -2.976562 9.234375 -2.96875 C 9.253906 -2.957031 9.265625 -2.953125 9.265625 -2.953125 C 9.304688 -2.816406 9.316406 -2.71875 9.296875 -2.65625 L 9.296875 -2.390625 L 9.265625 -2.328125 C 9.210938 -2.273438 9.210938 -2.25 9.265625 -2.25 L 9.390625 -2.21875 L 9.390625 -2.09375 C 9.503906 -2.019531 9.582031 -1.984375 9.625 -1.984375 L 9.75 -1.984375 L 9.796875 -2.09375 C 9.816406 -2.09375 9.828125 -2.125 9.828125 -2.1875 L 9.828125 -2.25 L 9.859375 -2.25 Z M 9.859375 -3.3125 "/></g></g></g></svg>